ISO-10303-21;
HEADER;
/* Generated by software containing ST-Developer
 * from STEP Tools, Inc. (www.steptools.com) 
 */

FILE_DESCRIPTION(
/* description */ (''),
/* implementation_level */ '2;1');

FILE_NAME(
/* name */ 'F.R.I.D.A.Y.step',
/* time_stamp */ '2026-08-17T12:43:23+05:30',
/* author */ (''),
/* organization */ (''),
/* preprocessor_version */ 'ST-DEVELOPER v20.1',
/* originating_system */ 'Autodesk Translation Framework v15.8.0.0',
/* authorisation */ '');

FILE_SCHEMA (('AUTOMOTIVE_DESIGN { 1 0 10303 214 3 1 1 }'));
ENDSEC;

DATA;
#10=MECHANICAL_DESIGN_GEOMETRIC_PRESENTATION_REPRESENTATION('',(#13,#14),
#2211);
#11=SHAPE_REPRESENTATION_RELATIONSHIP('SRR','None',#2218,#12);
#12=ADVANCED_BREP_SHAPE_REPRESENTATION('',(#15,#16),#2210);
#13=STYLED_ITEM('',(#2227),#15);
#14=STYLED_ITEM('',(#2227),#16);
#15=MANIFOLD_SOLID_BREP('Body1',#1386);
#16=MANIFOLD_SOLID_BREP('Body2',#1387);
#17=FACE_BOUND('',#199,.T.);
#18=FACE_BOUND('',#201,.T.);
#19=FACE_BOUND('',#202,.T.);
#20=FACE_BOUND('',#203,.T.);
#21=FACE_BOUND('',#204,.T.);
#22=FACE_BOUND('',#209,.T.);
#23=FACE_BOUND('',#212,.T.);
#24=FACE_BOUND('',#259,.T.);
#25=FACE_BOUND('',#260,.T.);
#26=FACE_BOUND('',#261,.T.);
#27=FACE_BOUND('',#262,.T.);
#28=FACE_BOUND('',#263,.T.);
#29=FACE_BOUND('',#264,.T.);
#30=FACE_BOUND('',#265,.T.);
#31=FACE_BOUND('',#266,.T.);
#32=FACE_BOUND('',#267,.T.);
#33=FACE_BOUND('',#268,.T.);
#34=FACE_BOUND('',#269,.T.);
#35=FACE_BOUND('',#270,.T.);
#36=FACE_BOUND('',#271,.T.);
#37=FACE_BOUND('',#272,.T.);
#38=FACE_BOUND('',#274,.T.);
#39=FACE_BOUND('',#275,.T.);
#40=FACE_BOUND('',#276,.T.);
#41=FACE_BOUND('',#277,.T.);
#42=FACE_BOUND('',#278,.T.);
#43=FACE_BOUND('',#279,.T.);
#44=FACE_BOUND('',#280,.T.);
#45=FACE_BOUND('',#281,.T.);
#46=FACE_BOUND('',#282,.T.);
#47=FACE_BOUND('',#283,.T.);
#48=FACE_BOUND('',#284,.T.);
#49=FACE_BOUND('',#285,.T.);
#50=FACE_BOUND('',#286,.T.);
#51=FACE_BOUND('',#287,.T.);
#52=PLANE('',#1404);
#53=PLANE('',#1408);
#54=PLANE('',#1412);
#55=PLANE('',#1416);
#56=PLANE('',#1417);
#57=PLANE('',#1418);
#58=PLANE('',#1419);
#59=PLANE('',#1420);
#60=PLANE('',#1421);
#61=PLANE('',#1422);
#62=PLANE('',#1423);
#63=PLANE('',#1424);
#64=PLANE('',#1425);
#65=PLANE('',#1426);
#66=PLANE('',#1427);
#67=PLANE('',#1428);
#68=PLANE('',#1429);
#69=PLANE('',#1430);
#70=PLANE('',#1431);
#71=PLANE('',#1444);
#72=PLANE('',#1445);
#73=PLANE('',#1446);
#74=PLANE('',#1447);
#75=PLANE('',#1448);
#76=PLANE('',#1449);
#77=PLANE('',#1450);
#78=PLANE('',#1451);
#79=PLANE('',#1452);
#80=PLANE('',#1453);
#81=PLANE('',#1454);
#82=PLANE('',#1455);
#83=PLANE('',#1456);
#84=PLANE('',#1457);
#85=PLANE('',#1458);
#86=PLANE('',#1459);
#87=PLANE('',#1460);
#88=PLANE('',#1461);
#89=PLANE('',#1462);
#90=PLANE('',#1463);
#91=PLANE('',#1464);
#92=PLANE('',#1465);
#93=PLANE('',#1466);
#94=PLANE('',#1467);
#95=PLANE('',#1468);
#96=PLANE('',#1469);
#97=PLANE('',#1470);
#98=PLANE('',#1471);
#99=PLANE('',#1472);
#100=PLANE('',#1473);
#101=PLANE('',#1474);
#102=PLANE('',#1475);
#103=PLANE('',#1476);
#104=PLANE('',#1477);
#105=PLANE('',#1478);
#106=PLANE('',#1479);
#107=PLANE('',#1483);
#108=PLANE('',#1484);
#109=PLANE('',#1485);
#110=PLANE('',#1486);
#111=PLANE('',#1487);
#112=PLANE('',#1488);
#113=FACE_OUTER_BOUND('',#183,.T.);
#114=FACE_OUTER_BOUND('',#184,.T.);
#115=FACE_OUTER_BOUND('',#185,.T.);
#116=FACE_OUTER_BOUND('',#186,.T.);
#117=FACE_OUTER_BOUND('',#187,.T.);
#118=FACE_OUTER_BOUND('',#188,.T.);
#119=FACE_OUTER_BOUND('',#189,.T.);
#120=FACE_OUTER_BOUND('',#190,.T.);
#121=FACE_OUTER_BOUND('',#191,.T.);
#122=FACE_OUTER_BOUND('',#192,.T.);
#123=FACE_OUTER_BOUND('',#193,.T.);
#124=FACE_OUTER_BOUND('',#194,.T.);
#125=FACE_OUTER_BOUND('',#195,.T.);
#126=FACE_OUTER_BOUND('',#196,.T.);
#127=FACE_OUTER_BOUND('',#197,.T.);
#128=FACE_OUTER_BOUND('',#198,.T.);
#129=FACE_OUTER_BOUND('',#200,.T.);
#130=FACE_OUTER_BOUND('',#205,.T.);
#131=FACE_OUTER_BOUND('',#206,.T.);
#132=FACE_OUTER_BOUND('',#207,.T.);
#133=FACE_OUTER_BOUND('',#208,.T.);
#134=FACE_OUTER_BOUND('',#210,.T.);
#135=FACE_OUTER_BOUND('',#211,.T.);
#136=FACE_OUTER_BOUND('',#213,.T.);
#137=FACE_OUTER_BOUND('',#214,.T.);
#138=FACE_OUTER_BOUND('',#215,.T.);
#139=FACE_OUTER_BOUND('',#216,.T.);
#140=FACE_OUTER_BOUND('',#217,.T.);
#141=FACE_OUTER_BOUND('',#218,.T.);
#142=FACE_OUTER_BOUND('',#219,.T.);
#143=FACE_OUTER_BOUND('',#220,.T.);
#144=FACE_OUTER_BOUND('',#221,.T.);
#145=FACE_OUTER_BOUND('',#222,.T.);
#146=FACE_OUTER_BOUND('',#223,.T.);
#147=FACE_OUTER_BOUND('',#224,.T.);
#148=FACE_OUTER_BOUND('',#225,.T.);
#149=FACE_OUTER_BOUND('',#226,.T.);
#150=FACE_OUTER_BOUND('',#227,.T.);
#151=FACE_OUTER_BOUND('',#228,.T.);
#152=FACE_OUTER_BOUND('',#229,.T.);
#153=FACE_OUTER_BOUND('',#230,.T.);
#154=FACE_OUTER_BOUND('',#231,.T.);
#155=FACE_OUTER_BOUND('',#232,.T.);
#156=FACE_OUTER_BOUND('',#233,.T.);
#157=FACE_OUTER_BOUND('',#234,.T.);
#158=FACE_OUTER_BOUND('',#235,.T.);
#159=FACE_OUTER_BOUND('',#236,.T.);
#160=FACE_OUTER_BOUND('',#237,.T.);
#161=FACE_OUTER_BOUND('',#238,.T.);
#162=FACE_OUTER_BOUND('',#239,.T.);
#163=FACE_OUTER_BOUND('',#240,.T.);
#164=FACE_OUTER_BOUND('',#241,.T.);
#165=FACE_OUTER_BOUND('',#242,.T.);
#166=FACE_OUTER_BOUND('',#243,.T.);
#167=FACE_OUTER_BOUND('',#244,.T.);
#168=FACE_OUTER_BOUND('',#245,.T.);
#169=FACE_OUTER_BOUND('',#246,.T.);
#170=FACE_OUTER_BOUND('',#247,.T.);
#171=FACE_OUTER_BOUND('',#248,.T.);
#172=FACE_OUTER_BOUND('',#249,.T.);
#173=FACE_OUTER_BOUND('',#250,.T.);
#174=FACE_OUTER_BOUND('',#251,.T.);
#175=FACE_OUTER_BOUND('',#252,.T.);
#176=FACE_OUTER_BOUND('',#253,.T.);
#177=FACE_OUTER_BOUND('',#254,.T.);
#178=FACE_OUTER_BOUND('',#255,.T.);
#179=FACE_OUTER_BOUND('',#256,.T.);
#180=FACE_OUTER_BOUND('',#257,.T.);
#181=FACE_OUTER_BOUND('',#258,.T.);
#182=FACE_OUTER_BOUND('',#273,.T.);
#183=EDGE_LOOP('',(#941,#942,#943,#944));
#184=EDGE_LOOP('',(#945));
#185=EDGE_LOOP('',(#946,#947,#948,#949));
#186=EDGE_LOOP('',(#950));
#187=EDGE_LOOP('',(#951,#952,#953,#954));
#188=EDGE_LOOP('',(#955));
#189=EDGE_LOOP('',(#956,#957,#958,#959));
#190=EDGE_LOOP('',(#960));
#191=EDGE_LOOP('',(#961,#962,#963,#964));
#192=EDGE_LOOP('',(#965,#966,#967,#968));
#193=EDGE_LOOP('',(#969,#970,#971,#972));
#194=EDGE_LOOP('',(#973,#974,#975,#976));
#195=EDGE_LOOP('',(#977,#978,#979,#980));
#196=EDGE_LOOP('',(#981,#982,#983,#984));
#197=EDGE_LOOP('',(#985,#986,#987,#988));
#198=EDGE_LOOP('',(#989,#990,#991,#992));
#199=EDGE_LOOP('',(#993,#994,#995,#996));
#200=EDGE_LOOP('',(#997,#998,#999,#1000));
#201=EDGE_LOOP('',(#1001));
#202=EDGE_LOOP('',(#1002));
#203=EDGE_LOOP('',(#1003));
#204=EDGE_LOOP('',(#1004));
#205=EDGE_LOOP('',(#1005,#1006,#1007,#1008));
#206=EDGE_LOOP('',(#1009,#1010,#1011,#1012));
#207=EDGE_LOOP('',(#1013,#1014,#1015,#1016));
#208=EDGE_LOOP('',(#1017,#1018,#1019,#1020));
#209=EDGE_LOOP('',(#1021,#1022,#1023,#1024));
#210=EDGE_LOOP('',(#1025,#1026,#1027,#1028));
#211=EDGE_LOOP('',(#1029,#1030,#1031,#1032));
#212=EDGE_LOOP('',(#1033,#1034,#1035,#1036));
#213=EDGE_LOOP('',(#1037,#1038,#1039,#1040));
#214=EDGE_LOOP('',(#1041,#1042,#1043,#1044));
#215=EDGE_LOOP('',(#1045,#1046,#1047,#1048));
#216=EDGE_LOOP('',(#1049,#1050,#1051,#1052));
#217=EDGE_LOOP('',(#1053,#1054,#1055,#1056));
#218=EDGE_LOOP('',(#1057,#1058,#1059,#1060));
#219=EDGE_LOOP('',(#1061,#1062,#1063,#1064));
#220=EDGE_LOOP('',(#1065,#1066,#1067,#1068));
#221=EDGE_LOOP('',(#1069,#1070,#1071,#1072));
#222=EDGE_LOOP('',(#1073,#1074,#1075,#1076));
#223=EDGE_LOOP('',(#1077,#1078,#1079,#1080));
#224=EDGE_LOOP('',(#1081,#1082,#1083,#1084));
#225=EDGE_LOOP('',(#1085,#1086,#1087,#1088));
#226=EDGE_LOOP('',(#1089,#1090,#1091,#1092));
#227=EDGE_LOOP('',(#1093,#1094,#1095,#1096));
#228=EDGE_LOOP('',(#1097,#1098,#1099,#1100));
#229=EDGE_LOOP('',(#1101,#1102,#1103,#1104));
#230=EDGE_LOOP('',(#1105,#1106,#1107,#1108));
#231=EDGE_LOOP('',(#1109,#1110,#1111,#1112));
#232=EDGE_LOOP('',(#1113,#1114,#1115,#1116));
#233=EDGE_LOOP('',(#1117,#1118,#1119,#1120));
#234=EDGE_LOOP('',(#1121,#1122,#1123,#1124));
#235=EDGE_LOOP('',(#1125,#1126,#1127,#1128));
#236=EDGE_LOOP('',(#1129,#1130,#1131,#1132));
#237=EDGE_LOOP('',(#1133,#1134,#1135,#1136));
#238=EDGE_LOOP('',(#1137,#1138,#1139,#1140));
#239=EDGE_LOOP('',(#1141,#1142,#1143,#1144));
#240=EDGE_LOOP('',(#1145,#1146,#1147,#1148));
#241=EDGE_LOOP('',(#1149,#1150,#1151,#1152));
#242=EDGE_LOOP('',(#1153,#1154,#1155,#1156));
#243=EDGE_LOOP('',(#1157,#1158,#1159,#1160));
#244=EDGE_LOOP('',(#1161,#1162,#1163,#1164));
#245=EDGE_LOOP('',(#1165,#1166,#1167,#1168));
#246=EDGE_LOOP('',(#1169,#1170,#1171,#1172));
#247=EDGE_LOOP('',(#1173,#1174,#1175,#1176));
#248=EDGE_LOOP('',(#1177,#1178,#1179,#1180));
#249=EDGE_LOOP('',(#1181,#1182,#1183,#1184));
#250=EDGE_LOOP('',(#1185,#1186,#1187,#1188));
#251=EDGE_LOOP('',(#1189,#1190,#1191,#1192));
#252=EDGE_LOOP('',(#1193,#1194,#1195,#1196));
#253=EDGE_LOOP('',(#1197,#1198,#1199,#1200));
#254=EDGE_LOOP('',(#1201,#1202,#1203,#1204));
#255=EDGE_LOOP('',(#1205,#1206,#1207,#1208));
#256=EDGE_LOOP('',(#1209,#1210,#1211,#1212));
#257=EDGE_LOOP('',(#1213,#1214,#1215,#1216));
#258=EDGE_LOOP('',(#1217,#1218,#1219,#1220));
#259=EDGE_LOOP('',(#1221));
#260=EDGE_LOOP('',(#1222));
#261=EDGE_LOOP('',(#1223,#1224,#1225,#1226));
#262=EDGE_LOOP('',(#1227,#1228,#1229,#1230));
#263=EDGE_LOOP('',(#1231,#1232,#1233,#1234));
#264=EDGE_LOOP('',(#1235,#1236,#1237,#1238));
#265=EDGE_LOOP('',(#1239,#1240,#1241,#1242));
#266=EDGE_LOOP('',(#1243,#1244,#1245,#1246));
#267=EDGE_LOOP('',(#1247,#1248,#1249,#1250));
#268=EDGE_LOOP('',(#1251,#1252,#1253,#1254));
#269=EDGE_LOOP('',(#1255));
#270=EDGE_LOOP('',(#1256,#1257,#1258,#1259));
#271=EDGE_LOOP('',(#1260));
#272=EDGE_LOOP('',(#1261));
#273=EDGE_LOOP('',(#1262,#1263,#1264,#1265));
#274=EDGE_LOOP('',(#1266));
#275=EDGE_LOOP('',(#1267));
#276=EDGE_LOOP('',(#1268,#1269,#1270,#1271));
#277=EDGE_LOOP('',(#1272,#1273,#1274,#1275));
#278=EDGE_LOOP('',(#1276,#1277,#1278,#1279));
#279=EDGE_LOOP('',(#1280,#1281,#1282,#1283));
#280=EDGE_LOOP('',(#1284,#1285,#1286,#1287));
#281=EDGE_LOOP('',(#1288,#1289,#1290,#1291));
#282=EDGE_LOOP('',(#1292,#1293,#1294,#1295));
#283=EDGE_LOOP('',(#1296,#1297,#1298,#1299));
#284=EDGE_LOOP('',(#1300));
#285=EDGE_LOOP('',(#1301,#1302,#1303,#1304));
#286=EDGE_LOOP('',(#1305));
#287=EDGE_LOOP('',(#1306));
#288=LINE('',#1837,#453);
#289=LINE('',#1844,#454);
#290=LINE('',#1851,#455);
#291=LINE('',#1858,#456);
#292=LINE('',#1864,#457);
#293=LINE('',#1866,#458);
#294=LINE('',#1868,#459);
#295=LINE('',#1869,#460);
#296=LINE('',#1872,#461);
#297=LINE('',#1874,#462);
#298=LINE('',#1875,#463);
#299=LINE('',#1878,#464);
#300=LINE('',#1880,#465);
#301=LINE('',#1881,#466);
#302=LINE('',#1883,#467);
#303=LINE('',#1884,#468);
#304=LINE('',#1888,#469);
#305=LINE('',#1890,#470);
#306=LINE('',#1892,#471);
#307=LINE('',#1893,#472);
#308=LINE('',#1896,#473);
#309=LINE('',#1898,#474);
#310=LINE('',#1899,#475);
#311=LINE('',#1902,#476);
#312=LINE('',#1904,#477);
#313=LINE('',#1905,#478);
#314=LINE('',#1907,#479);
#315=LINE('',#1908,#480);
#316=LINE('',#1913,#481);
#317=LINE('',#1915,#482);
#318=LINE('',#1917,#483);
#319=LINE('',#1918,#484);
#320=LINE('',#1921,#485);
#321=LINE('',#1923,#486);
#322=LINE('',#1924,#487);
#323=LINE('',#1927,#488);
#324=LINE('',#1929,#489);
#325=LINE('',#1930,#490);
#326=LINE('',#1932,#491);
#327=LINE('',#1933,#492);
#328=LINE('',#1940,#493);
#329=LINE('',#1946,#494);
#330=LINE('',#1952,#495);
#331=LINE('',#1958,#496);
#332=LINE('',#1963,#497);
#333=LINE('',#1965,#498);
#334=LINE('',#1967,#499);
#335=LINE('',#1968,#500);
#336=LINE('',#1971,#501);
#337=LINE('',#1973,#502);
#338=LINE('',#1974,#503);
#339=LINE('',#1977,#504);
#340=LINE('',#1979,#505);
#341=LINE('',#1980,#506);
#342=LINE('',#1982,#507);
#343=LINE('',#1983,#508);
#344=LINE('',#1987,#509);
#345=LINE('',#1989,#510);
#346=LINE('',#1991,#511);
#347=LINE('',#1992,#512);
#348=LINE('',#1995,#513);
#349=LINE('',#1997,#514);
#350=LINE('',#1998,#515);
#351=LINE('',#2001,#516);
#352=LINE('',#2003,#517);
#353=LINE('',#2004,#518);
#354=LINE('',#2006,#519);
#355=LINE('',#2007,#520);
#356=LINE('',#2011,#521);
#357=LINE('',#2013,#522);
#358=LINE('',#2015,#523);
#359=LINE('',#2016,#524);
#360=LINE('',#2019,#525);
#361=LINE('',#2021,#526);
#362=LINE('',#2022,#527);
#363=LINE('',#2025,#528);
#364=LINE('',#2027,#529);
#365=LINE('',#2028,#530);
#366=LINE('',#2030,#531);
#367=LINE('',#2031,#532);
#368=LINE('',#2035,#533);
#369=LINE('',#2037,#534);
#370=LINE('',#2039,#535);
#371=LINE('',#2040,#536);
#372=LINE('',#2043,#537);
#373=LINE('',#2045,#538);
#374=LINE('',#2046,#539);
#375=LINE('',#2049,#540);
#376=LINE('',#2051,#541);
#377=LINE('',#2052,#542);
#378=LINE('',#2054,#543);
#379=LINE('',#2055,#544);
#380=LINE('',#2059,#545);
#381=LINE('',#2061,#546);
#382=LINE('',#2063,#547);
#383=LINE('',#2064,#548);
#384=LINE('',#2067,#549);
#385=LINE('',#2069,#550);
#386=LINE('',#2070,#551);
#387=LINE('',#2073,#552);
#388=LINE('',#2075,#553);
#389=LINE('',#2076,#554);
#390=LINE('',#2078,#555);
#391=LINE('',#2079,#556);
#392=LINE('',#2083,#557);
#393=LINE('',#2085,#558);
#394=LINE('',#2087,#559);
#395=LINE('',#2088,#560);
#396=LINE('',#2091,#561);
#397=LINE('',#2093,#562);
#398=LINE('',#2094,#563);
#399=LINE('',#2097,#564);
#400=LINE('',#2099,#565);
#401=LINE('',#2100,#566);
#402=LINE('',#2102,#567);
#403=LINE('',#2103,#568);
#404=LINE('',#2107,#569);
#405=LINE('',#2109,#570);
#406=LINE('',#2111,#571);
#407=LINE('',#2112,#572);
#408=LINE('',#2115,#573);
#409=LINE('',#2117,#574);
#410=LINE('',#2118,#575);
#411=LINE('',#2121,#576);
#412=LINE('',#2123,#577);
#413=LINE('',#2124,#578);
#414=LINE('',#2126,#579);
#415=LINE('',#2127,#580);
#416=LINE('',#2131,#581);
#417=LINE('',#2133,#582);
#418=LINE('',#2135,#583);
#419=LINE('',#2136,#584);
#420=LINE('',#2139,#585);
#421=LINE('',#2141,#586);
#422=LINE('',#2142,#587);
#423=LINE('',#2145,#588);
#424=LINE('',#2147,#589);
#425=LINE('',#2148,#590);
#426=LINE('',#2150,#591);
#427=LINE('',#2151,#592);
#428=LINE('',#2155,#593);
#429=LINE('',#2157,#594);
#430=LINE('',#2159,#595);
#431=LINE('',#2160,#596);
#432=LINE('',#2163,#597);
#433=LINE('',#2165,#598);
#434=LINE('',#2166,#599);
#435=LINE('',#2169,#600);
#436=LINE('',#2171,#601);
#437=LINE('',#2172,#602);
#438=LINE('',#2174,#603);
#439=LINE('',#2175,#604);
#440=LINE('',#2180,#605);
#441=LINE('',#2185,#606);
#442=LINE('',#2187,#607);
#443=LINE('',#2189,#608);
#444=LINE('',#2190,#609);
#445=LINE('',#2193,#610);
#446=LINE('',#2195,#611);
#447=LINE('',#2196,#612);
#448=LINE('',#2199,#613);
#449=LINE('',#2201,#614);
#450=LINE('',#2202,#615);
#451=LINE('',#2204,#616);
#452=LINE('',#2205,#617);
#453=VECTOR('',#1495,1.6);
#454=VECTOR('',#1504,1.6);
#455=VECTOR('',#1513,1.6);
#456=VECTOR('',#1522,1.6);
#457=VECTOR('',#1529,10.);
#458=VECTOR('',#1530,10.);
#459=VECTOR('',#1531,10.);
#460=VECTOR('',#1532,10.);
#461=VECTOR('',#1535,10.);
#462=VECTOR('',#1536,10.);
#463=VECTOR('',#1537,10.);
#464=VECTOR('',#1540,10.);
#465=VECTOR('',#1541,10.);
#466=VECTOR('',#1542,10.);
#467=VECTOR('',#1545,10.);
#468=VECTOR('',#1546,10.);
#469=VECTOR('',#1549,10.);
#470=VECTOR('',#1550,10.);
#471=VECTOR('',#1551,10.);
#472=VECTOR('',#1552,10.);
#473=VECTOR('',#1555,10.);
#474=VECTOR('',#1556,10.);
#475=VECTOR('',#1557,10.);
#476=VECTOR('',#1560,10.);
#477=VECTOR('',#1561,10.);
#478=VECTOR('',#1562,10.);
#479=VECTOR('',#1565,10.);
#480=VECTOR('',#1566,10.);
#481=VECTOR('',#1571,10.);
#482=VECTOR('',#1572,10.);
#483=VECTOR('',#1573,10.);
#484=VECTOR('',#1574,10.);
#485=VECTOR('',#1577,10.);
#486=VECTOR('',#1578,10.);
#487=VECTOR('',#1579,10.);
#488=VECTOR('',#1582,10.);
#489=VECTOR('',#1583,10.);
#490=VECTOR('',#1584,10.);
#491=VECTOR('',#1587,10.);
#492=VECTOR('',#1588,10.);
#493=VECTOR('',#1597,1.6);
#494=VECTOR('',#1604,1.6);
#495=VECTOR('',#1611,1.6);
#496=VECTOR('',#1618,1.6);
#497=VECTOR('',#1623,10.);
#498=VECTOR('',#1624,10.);
#499=VECTOR('',#1625,10.);
#500=VECTOR('',#1626,10.);
#501=VECTOR('',#1629,10.);
#502=VECTOR('',#1630,10.);
#503=VECTOR('',#1631,10.);
#504=VECTOR('',#1634,10.);
#505=VECTOR('',#1635,10.);
#506=VECTOR('',#1636,10.);
#507=VECTOR('',#1639,10.);
#508=VECTOR('',#1640,10.);
#509=VECTOR('',#1643,10.);
#510=VECTOR('',#1644,10.);
#511=VECTOR('',#1645,10.);
#512=VECTOR('',#1646,10.);
#513=VECTOR('',#1649,10.);
#514=VECTOR('',#1650,10.);
#515=VECTOR('',#1651,10.);
#516=VECTOR('',#1654,10.);
#517=VECTOR('',#1655,10.);
#518=VECTOR('',#1656,10.);
#519=VECTOR('',#1659,10.);
#520=VECTOR('',#1660,10.);
#521=VECTOR('',#1663,10.);
#522=VECTOR('',#1664,10.);
#523=VECTOR('',#1665,10.);
#524=VECTOR('',#1666,10.);
#525=VECTOR('',#1669,10.);
#526=VECTOR('',#1670,10.);
#527=VECTOR('',#1671,10.);
#528=VECTOR('',#1674,10.);
#529=VECTOR('',#1675,10.);
#530=VECTOR('',#1676,10.);
#531=VECTOR('',#1679,10.);
#532=VECTOR('',#1680,10.);
#533=VECTOR('',#1683,10.);
#534=VECTOR('',#1684,10.);
#535=VECTOR('',#1685,10.);
#536=VECTOR('',#1686,10.);
#537=VECTOR('',#1689,10.);
#538=VECTOR('',#1690,10.);
#539=VECTOR('',#1691,10.);
#540=VECTOR('',#1694,10.);
#541=VECTOR('',#1695,10.);
#542=VECTOR('',#1696,10.);
#543=VECTOR('',#1699,10.);
#544=VECTOR('',#1700,10.);
#545=VECTOR('',#1703,10.);
#546=VECTOR('',#1704,10.);
#547=VECTOR('',#1705,10.);
#548=VECTOR('',#1706,10.);
#549=VECTOR('',#1709,10.);
#550=VECTOR('',#1710,10.);
#551=VECTOR('',#1711,10.);
#552=VECTOR('',#1714,10.);
#553=VECTOR('',#1715,10.);
#554=VECTOR('',#1716,10.);
#555=VECTOR('',#1719,10.);
#556=VECTOR('',#1720,10.);
#557=VECTOR('',#1723,10.);
#558=VECTOR('',#1724,10.);
#559=VECTOR('',#1725,10.);
#560=VECTOR('',#1726,10.);
#561=VECTOR('',#1729,10.);
#562=VECTOR('',#1730,10.);
#563=VECTOR('',#1731,10.);
#564=VECTOR('',#1734,10.);
#565=VECTOR('',#1735,10.);
#566=VECTOR('',#1736,10.);
#567=VECTOR('',#1739,10.);
#568=VECTOR('',#1740,10.);
#569=VECTOR('',#1743,10.);
#570=VECTOR('',#1744,10.);
#571=VECTOR('',#1745,10.);
#572=VECTOR('',#1746,10.);
#573=VECTOR('',#1749,10.);
#574=VECTOR('',#1750,10.);
#575=VECTOR('',#1751,10.);
#576=VECTOR('',#1754,10.);
#577=VECTOR('',#1755,10.);
#578=VECTOR('',#1756,10.);
#579=VECTOR('',#1759,10.);
#580=VECTOR('',#1760,10.);
#581=VECTOR('',#1763,10.);
#582=VECTOR('',#1764,10.);
#583=VECTOR('',#1765,10.);
#584=VECTOR('',#1766,10.);
#585=VECTOR('',#1769,10.);
#586=VECTOR('',#1770,10.);
#587=VECTOR('',#1771,10.);
#588=VECTOR('',#1774,10.);
#589=VECTOR('',#1775,10.);
#590=VECTOR('',#1776,10.);
#591=VECTOR('',#1779,10.);
#592=VECTOR('',#1780,10.);
#593=VECTOR('',#1783,10.);
#594=VECTOR('',#1784,10.);
#595=VECTOR('',#1785,10.);
#596=VECTOR('',#1786,10.);
#597=VECTOR('',#1789,10.);
#598=VECTOR('',#1790,10.);
#599=VECTOR('',#1791,10.);
#600=VECTOR('',#1794,10.);
#601=VECTOR('',#1795,10.);
#602=VECTOR('',#1796,10.);
#603=VECTOR('',#1799,10.);
#604=VECTOR('',#1800,10.);
#605=VECTOR('',#1805,3.99999999999999);
#606=VECTOR('',#1810,10.);
#607=VECTOR('',#1811,10.);
#608=VECTOR('',#1812,10.);
#609=VECTOR('',#1813,10.);
#610=VECTOR('',#1816,10.);
#611=VECTOR('',#1817,10.);
#612=VECTOR('',#1818,10.);
#613=VECTOR('',#1821,10.);
#614=VECTOR('',#1822,10.);
#615=VECTOR('',#1823,10.);
#616=VECTOR('',#1826,10.);
#617=VECTOR('',#1827,10.);
#618=CIRCLE('',#1402,1.6);
#619=CIRCLE('',#1403,1.6);
#620=CIRCLE('',#1406,1.6);
#621=CIRCLE('',#1407,1.6);
#622=CIRCLE('',#1410,1.6);
#623=CIRCLE('',#1411,1.6);
#624=CIRCLE('',#1414,1.6);
#625=CIRCLE('',#1415,1.6);
#626=CIRCLE('',#1433,1.6);
#627=CIRCLE('',#1434,1.6);
#628=CIRCLE('',#1436,1.6);
#629=CIRCLE('',#1437,1.6);
#630=CIRCLE('',#1439,1.6);
#631=CIRCLE('',#1440,1.6);
#632=CIRCLE('',#1442,1.6);
#633=CIRCLE('',#1443,1.6);
#634=CIRCLE('',#1481,3.99999999999999);
#635=CIRCLE('',#1482,3.99999999999999);
#636=VERTEX_POINT('',#1834);
#637=VERTEX_POINT('',#1836);
#638=VERTEX_POINT('',#1841);
#639=VERTEX_POINT('',#1843);
#640=VERTEX_POINT('',#1848);
#641=VERTEX_POINT('',#1850);
#642=VERTEX_POINT('',#1855);
#643=VERTEX_POINT('',#1857);
#644=VERTEX_POINT('',#1862);
#645=VERTEX_POINT('',#1863);
#646=VERTEX_POINT('',#1865);
#647=VERTEX_POINT('',#1867);
#648=VERTEX_POINT('',#1871);
#649=VERTEX_POINT('',#1873);
#650=VERTEX_POINT('',#1877);
#651=VERTEX_POINT('',#1879);
#652=VERTEX_POINT('',#1886);
#653=VERTEX_POINT('',#1887);
#654=VERTEX_POINT('',#1889);
#655=VERTEX_POINT('',#1891);
#656=VERTEX_POINT('',#1895);
#657=VERTEX_POINT('',#1897);
#658=VERTEX_POINT('',#1901);
#659=VERTEX_POINT('',#1903);
#660=VERTEX_POINT('',#1911);
#661=VERTEX_POINT('',#1912);
#662=VERTEX_POINT('',#1914);
#663=VERTEX_POINT('',#1916);
#664=VERTEX_POINT('',#1920);
#665=VERTEX_POINT('',#1922);
#666=VERTEX_POINT('',#1926);
#667=VERTEX_POINT('',#1928);
#668=VERTEX_POINT('',#1937);
#669=VERTEX_POINT('',#1939);
#670=VERTEX_POINT('',#1943);
#671=VERTEX_POINT('',#1945);
#672=VERTEX_POINT('',#1949);
#673=VERTEX_POINT('',#1951);
#674=VERTEX_POINT('',#1955);
#675=VERTEX_POINT('',#1957);
#676=VERTEX_POINT('',#1961);
#677=VERTEX_POINT('',#1962);
#678=VERTEX_POINT('',#1964);
#679=VERTEX_POINT('',#1966);
#680=VERTEX_POINT('',#1970);
#681=VERTEX_POINT('',#1972);
#682=VERTEX_POINT('',#1976);
#683=VERTEX_POINT('',#1978);
#684=VERTEX_POINT('',#1985);
#685=VERTEX_POINT('',#1986);
#686=VERTEX_POINT('',#1988);
#687=VERTEX_POINT('',#1990);
#688=VERTEX_POINT('',#1994);
#689=VERTEX_POINT('',#1996);
#690=VERTEX_POINT('',#2000);
#691=VERTEX_POINT('',#2002);
#692=VERTEX_POINT('',#2009);
#693=VERTEX_POINT('',#2010);
#694=VERTEX_POINT('',#2012);
#695=VERTEX_POINT('',#2014);
#696=VERTEX_POINT('',#2018);
#697=VERTEX_POINT('',#2020);
#698=VERTEX_POINT('',#2024);
#699=VERTEX_POINT('',#2026);
#700=VERTEX_POINT('',#2033);
#701=VERTEX_POINT('',#2034);
#702=VERTEX_POINT('',#2036);
#703=VERTEX_POINT('',#2038);
#704=VERTEX_POINT('',#2042);
#705=VERTEX_POINT('',#2044);
#706=VERTEX_POINT('',#2048);
#707=VERTEX_POINT('',#2050);
#708=VERTEX_POINT('',#2057);
#709=VERTEX_POINT('',#2058);
#710=VERTEX_POINT('',#2060);
#711=VERTEX_POINT('',#2062);
#712=VERTEX_POINT('',#2066);
#713=VERTEX_POINT('',#2068);
#714=VERTEX_POINT('',#2072);
#715=VERTEX_POINT('',#2074);
#716=VERTEX_POINT('',#2081);
#717=VERTEX_POINT('',#2082);
#718=VERTEX_POINT('',#2084);
#719=VERTEX_POINT('',#2086);
#720=VERTEX_POINT('',#2090);
#721=VERTEX_POINT('',#2092);
#722=VERTEX_POINT('',#2096);
#723=VERTEX_POINT('',#2098);
#724=VERTEX_POINT('',#2105);
#725=VERTEX_POINT('',#2106);
#726=VERTEX_POINT('',#2108);
#727=VERTEX_POINT('',#2110);
#728=VERTEX_POINT('',#2114);
#729=VERTEX_POINT('',#2116);
#730=VERTEX_POINT('',#2120);
#731=VERTEX_POINT('',#2122);
#732=VERTEX_POINT('',#2129);
#733=VERTEX_POINT('',#2130);
#734=VERTEX_POINT('',#2132);
#735=VERTEX_POINT('',#2134);
#736=VERTEX_POINT('',#2138);
#737=VERTEX_POINT('',#2140);
#738=VERTEX_POINT('',#2144);
#739=VERTEX_POINT('',#2146);
#740=VERTEX_POINT('',#2153);
#741=VERTEX_POINT('',#2154);
#742=VERTEX_POINT('',#2156);
#743=VERTEX_POINT('',#2158);
#744=VERTEX_POINT('',#2162);
#745=VERTEX_POINT('',#2164);
#746=VERTEX_POINT('',#2168);
#747=VERTEX_POINT('',#2170);
#748=VERTEX_POINT('',#2177);
#749=VERTEX_POINT('',#2179);
#750=VERTEX_POINT('',#2183);
#751=VERTEX_POINT('',#2184);
#752=VERTEX_POINT('',#2186);
#753=VERTEX_POINT('',#2188);
#754=VERTEX_POINT('',#2192);
#755=VERTEX_POINT('',#2194);
#756=VERTEX_POINT('',#2198);
#757=VERTEX_POINT('',#2200);
#758=EDGE_CURVE('',#636,#636,#618,.T.);
#759=EDGE_CURVE('',#636,#637,#288,.T.);
#760=EDGE_CURVE('',#637,#637,#619,.T.);
#761=EDGE_CURVE('',#638,#638,#620,.T.);
#762=EDGE_CURVE('',#638,#639,#289,.T.);
#763=EDGE_CURVE('',#639,#639,#621,.T.);
#764=EDGE_CURVE('',#640,#640,#622,.T.);
#765=EDGE_CURVE('',#640,#641,#290,.T.);
#766=EDGE_CURVE('',#641,#641,#623,.T.);
#767=EDGE_CURVE('',#642,#642,#624,.T.);
#768=EDGE_CURVE('',#642,#643,#291,.T.);
#769=EDGE_CURVE('',#643,#643,#625,.T.);
#770=EDGE_CURVE('',#644,#645,#292,.T.);
#771=EDGE_CURVE('',#646,#644,#293,.T.);
#772=EDGE_CURVE('',#647,#646,#294,.T.);
#773=EDGE_CURVE('',#647,#645,#295,.T.);
#774=EDGE_CURVE('',#645,#648,#296,.T.);
#775=EDGE_CURVE('',#649,#647,#297,.T.);
#776=EDGE_CURVE('',#649,#648,#298,.T.);
#777=EDGE_CURVE('',#648,#650,#299,.T.);
#778=EDGE_CURVE('',#651,#649,#300,.T.);
#779=EDGE_CURVE('',#651,#650,#301,.T.);
#780=EDGE_CURVE('',#650,#644,#302,.T.);
#781=EDGE_CURVE('',#646,#651,#303,.T.);
#782=EDGE_CURVE('',#652,#653,#304,.T.);
#783=EDGE_CURVE('',#652,#654,#305,.F.);
#784=EDGE_CURVE('',#654,#655,#306,.F.);
#785=EDGE_CURVE('',#653,#655,#307,.T.);
#786=EDGE_CURVE('',#656,#652,#308,.T.);
#787=EDGE_CURVE('',#656,#657,#309,.F.);
#788=EDGE_CURVE('',#657,#654,#310,.F.);
#789=EDGE_CURVE('',#658,#656,#311,.T.);
#790=EDGE_CURVE('',#658,#659,#312,.F.);
#791=EDGE_CURVE('',#659,#657,#313,.F.);
#792=EDGE_CURVE('',#653,#658,#314,.T.);
#793=EDGE_CURVE('',#655,#659,#315,.F.);
#794=EDGE_CURVE('',#660,#661,#316,.T.);
#795=EDGE_CURVE('',#660,#662,#317,.T.);
#796=EDGE_CURVE('',#663,#662,#318,.T.);
#797=EDGE_CURVE('',#661,#663,#319,.T.);
#798=EDGE_CURVE('',#661,#664,#320,.T.);
#799=EDGE_CURVE('',#665,#663,#321,.T.);
#800=EDGE_CURVE('',#664,#665,#322,.T.);
#801=EDGE_CURVE('',#664,#666,#323,.T.);
#802=EDGE_CURVE('',#667,#665,#324,.T.);
#803=EDGE_CURVE('',#666,#667,#325,.T.);
#804=EDGE_CURVE('',#666,#660,#326,.T.);
#805=EDGE_CURVE('',#662,#667,#327,.T.);
#806=EDGE_CURVE('',#668,#668,#626,.T.);
#807=EDGE_CURVE('',#668,#669,#328,.T.);
#808=EDGE_CURVE('',#669,#669,#627,.T.);
#809=EDGE_CURVE('',#670,#670,#628,.T.);
#810=EDGE_CURVE('',#670,#671,#329,.T.);
#811=EDGE_CURVE('',#671,#671,#629,.T.);
#812=EDGE_CURVE('',#672,#672,#630,.T.);
#813=EDGE_CURVE('',#672,#673,#330,.T.);
#814=EDGE_CURVE('',#673,#673,#631,.T.);
#815=EDGE_CURVE('',#674,#674,#632,.T.);
#816=EDGE_CURVE('',#674,#675,#331,.T.);
#817=EDGE_CURVE('',#675,#675,#633,.T.);
#818=EDGE_CURVE('',#676,#677,#332,.T.);
#819=EDGE_CURVE('',#678,#676,#333,.T.);
#820=EDGE_CURVE('',#679,#678,#334,.T.);
#821=EDGE_CURVE('',#679,#677,#335,.T.);
#822=EDGE_CURVE('',#677,#680,#336,.T.);
#823=EDGE_CURVE('',#681,#679,#337,.T.);
#824=EDGE_CURVE('',#681,#680,#338,.T.);
#825=EDGE_CURVE('',#680,#682,#339,.T.);
#826=EDGE_CURVE('',#683,#681,#340,.T.);
#827=EDGE_CURVE('',#683,#682,#341,.T.);
#828=EDGE_CURVE('',#682,#676,#342,.T.);
#829=EDGE_CURVE('',#678,#683,#343,.T.);
#830=EDGE_CURVE('',#684,#685,#344,.T.);
#831=EDGE_CURVE('',#686,#684,#345,.T.);
#832=EDGE_CURVE('',#687,#686,#346,.T.);
#833=EDGE_CURVE('',#687,#685,#347,.T.);
#834=EDGE_CURVE('',#685,#688,#348,.T.);
#835=EDGE_CURVE('',#689,#687,#349,.T.);
#836=EDGE_CURVE('',#689,#688,#350,.T.);
#837=EDGE_CURVE('',#688,#690,#351,.T.);
#838=EDGE_CURVE('',#691,#689,#352,.T.);
#839=EDGE_CURVE('',#691,#690,#353,.T.);
#840=EDGE_CURVE('',#690,#684,#354,.T.);
#841=EDGE_CURVE('',#686,#691,#355,.T.);
#842=EDGE_CURVE('',#692,#693,#356,.T.);
#843=EDGE_CURVE('',#694,#692,#357,.T.);
#844=EDGE_CURVE('',#695,#694,#358,.T.);
#845=EDGE_CURVE('',#695,#693,#359,.T.);
#846=EDGE_CURVE('',#693,#696,#360,.T.);
#847=EDGE_CURVE('',#697,#695,#361,.T.);
#848=EDGE_CURVE('',#697,#696,#362,.T.);
#849=EDGE_CURVE('',#696,#698,#363,.T.);
#850=EDGE_CURVE('',#699,#697,#364,.T.);
#851=EDGE_CURVE('',#699,#698,#365,.T.);
#852=EDGE_CURVE('',#698,#692,#366,.T.);
#853=EDGE_CURVE('',#694,#699,#367,.T.);
#854=EDGE_CURVE('',#700,#701,#368,.T.);
#855=EDGE_CURVE('',#702,#700,#369,.T.);
#856=EDGE_CURVE('',#703,#702,#370,.T.);
#857=EDGE_CURVE('',#703,#701,#371,.T.);
#858=EDGE_CURVE('',#701,#704,#372,.T.);
#859=EDGE_CURVE('',#705,#703,#373,.T.);
#860=EDGE_CURVE('',#705,#704,#374,.T.);
#861=EDGE_CURVE('',#704,#706,#375,.T.);
#862=EDGE_CURVE('',#707,#705,#376,.T.);
#863=EDGE_CURVE('',#707,#706,#377,.T.);
#864=EDGE_CURVE('',#706,#700,#378,.T.);
#865=EDGE_CURVE('',#702,#707,#379,.T.);
#866=EDGE_CURVE('',#708,#709,#380,.T.);
#867=EDGE_CURVE('',#710,#708,#381,.T.);
#868=EDGE_CURVE('',#711,#710,#382,.T.);
#869=EDGE_CURVE('',#711,#709,#383,.T.);
#870=EDGE_CURVE('',#709,#712,#384,.T.);
#871=EDGE_CURVE('',#713,#711,#385,.T.);
#872=EDGE_CURVE('',#713,#712,#386,.T.);
#873=EDGE_CURVE('',#712,#714,#387,.T.);
#874=EDGE_CURVE('',#715,#713,#388,.T.);
#875=EDGE_CURVE('',#715,#714,#389,.T.);
#876=EDGE_CURVE('',#714,#708,#390,.T.);
#877=EDGE_CURVE('',#710,#715,#391,.T.);
#878=EDGE_CURVE('',#716,#717,#392,.T.);
#879=EDGE_CURVE('',#718,#716,#393,.T.);
#880=EDGE_CURVE('',#719,#718,#394,.T.);
#881=EDGE_CURVE('',#719,#717,#395,.T.);
#882=EDGE_CURVE('',#717,#720,#396,.T.);
#883=EDGE_CURVE('',#721,#719,#397,.T.);
#884=EDGE_CURVE('',#721,#720,#398,.T.);
#885=EDGE_CURVE('',#720,#722,#399,.T.);
#886=EDGE_CURVE('',#723,#721,#400,.T.);
#887=EDGE_CURVE('',#723,#722,#401,.T.);
#888=EDGE_CURVE('',#722,#716,#402,.T.);
#889=EDGE_CURVE('',#718,#723,#403,.T.);
#890=EDGE_CURVE('',#724,#725,#404,.T.);
#891=EDGE_CURVE('',#726,#724,#405,.T.);
#892=EDGE_CURVE('',#727,#726,#406,.T.);
#893=EDGE_CURVE('',#727,#725,#407,.T.);
#894=EDGE_CURVE('',#725,#728,#408,.T.);
#895=EDGE_CURVE('',#729,#727,#409,.T.);
#896=EDGE_CURVE('',#729,#728,#410,.T.);
#897=EDGE_CURVE('',#728,#730,#411,.T.);
#898=EDGE_CURVE('',#731,#729,#412,.T.);
#899=EDGE_CURVE('',#731,#730,#413,.T.);
#900=EDGE_CURVE('',#730,#724,#414,.T.);
#901=EDGE_CURVE('',#726,#731,#415,.T.);
#902=EDGE_CURVE('',#732,#733,#416,.T.);
#903=EDGE_CURVE('',#734,#732,#417,.T.);
#904=EDGE_CURVE('',#735,#734,#418,.T.);
#905=EDGE_CURVE('',#735,#733,#419,.T.);
#906=EDGE_CURVE('',#733,#736,#420,.T.);
#907=EDGE_CURVE('',#737,#735,#421,.T.);
#908=EDGE_CURVE('',#737,#736,#422,.T.);
#909=EDGE_CURVE('',#736,#738,#423,.T.);
#910=EDGE_CURVE('',#739,#737,#424,.T.);
#911=EDGE_CURVE('',#739,#738,#425,.T.);
#912=EDGE_CURVE('',#738,#732,#426,.T.);
#913=EDGE_CURVE('',#734,#739,#427,.T.);
#914=EDGE_CURVE('',#740,#741,#428,.T.);
#915=EDGE_CURVE('',#742,#740,#429,.T.);
#916=EDGE_CURVE('',#743,#742,#430,.T.);
#917=EDGE_CURVE('',#743,#741,#431,.T.);
#918=EDGE_CURVE('',#741,#744,#432,.T.);
#919=EDGE_CURVE('',#745,#743,#433,.T.);
#920=EDGE_CURVE('',#745,#744,#434,.T.);
#921=EDGE_CURVE('',#744,#746,#435,.T.);
#922=EDGE_CURVE('',#747,#745,#436,.T.);
#923=EDGE_CURVE('',#747,#746,#437,.T.);
#924=EDGE_CURVE('',#746,#740,#438,.T.);
#925=EDGE_CURVE('',#742,#747,#439,.T.);
#926=EDGE_CURVE('',#748,#748,#634,.T.);
#927=EDGE_CURVE('',#748,#749,#440,.T.);
#928=EDGE_CURVE('',#749,#749,#635,.T.);
#929=EDGE_CURVE('',#750,#751,#441,.T.);
#930=EDGE_CURVE('',#751,#752,#442,.T.);
#931=EDGE_CURVE('',#753,#752,#443,.T.);
#932=EDGE_CURVE('',#750,#753,#444,.T.);
#933=EDGE_CURVE('',#754,#750,#445,.T.);
#934=EDGE_CURVE('',#755,#753,#446,.T.);
#935=EDGE_CURVE('',#754,#755,#447,.T.);
#936=EDGE_CURVE('',#756,#754,#448,.T.);
#937=EDGE_CURVE('',#757,#755,#449,.T.);
#938=EDGE_CURVE('',#756,#757,#450,.T.);
#939=EDGE_CURVE('',#751,#756,#451,.T.);
#940=EDGE_CURVE('',#752,#757,#452,.T.);
#941=ORIENTED_EDGE('',*,*,#758,.F.);
#942=ORIENTED_EDGE('',*,*,#759,.T.);
#943=ORIENTED_EDGE('',*,*,#760,.T.);
#944=ORIENTED_EDGE('',*,*,#759,.F.);
#945=ORIENTED_EDGE('',*,*,#760,.F.);
#946=ORIENTED_EDGE('',*,*,#761,.F.);
#947=ORIENTED_EDGE('',*,*,#762,.T.);
#948=ORIENTED_EDGE('',*,*,#763,.T.);
#949=ORIENTED_EDGE('',*,*,#762,.F.);
#950=ORIENTED_EDGE('',*,*,#763,.F.);
#951=ORIENTED_EDGE('',*,*,#764,.F.);
#952=ORIENTED_EDGE('',*,*,#765,.T.);
#953=ORIENTED_EDGE('',*,*,#766,.T.);
#954=ORIENTED_EDGE('',*,*,#765,.F.);
#955=ORIENTED_EDGE('',*,*,#766,.F.);
#956=ORIENTED_EDGE('',*,*,#767,.F.);
#957=ORIENTED_EDGE('',*,*,#768,.T.);
#958=ORIENTED_EDGE('',*,*,#769,.T.);
#959=ORIENTED_EDGE('',*,*,#768,.F.);
#960=ORIENTED_EDGE('',*,*,#769,.F.);
#961=ORIENTED_EDGE('',*,*,#770,.F.);
#962=ORIENTED_EDGE('',*,*,#771,.F.);
#963=ORIENTED_EDGE('',*,*,#772,.F.);
#964=ORIENTED_EDGE('',*,*,#773,.T.);
#965=ORIENTED_EDGE('',*,*,#774,.F.);
#966=ORIENTED_EDGE('',*,*,#773,.F.);
#967=ORIENTED_EDGE('',*,*,#775,.F.);
#968=ORIENTED_EDGE('',*,*,#776,.T.);
#969=ORIENTED_EDGE('',*,*,#777,.F.);
#970=ORIENTED_EDGE('',*,*,#776,.F.);
#971=ORIENTED_EDGE('',*,*,#778,.F.);
#972=ORIENTED_EDGE('',*,*,#779,.T.);
#973=ORIENTED_EDGE('',*,*,#780,.F.);
#974=ORIENTED_EDGE('',*,*,#779,.F.);
#975=ORIENTED_EDGE('',*,*,#781,.F.);
#976=ORIENTED_EDGE('',*,*,#771,.T.);
#977=ORIENTED_EDGE('',*,*,#782,.F.);
#978=ORIENTED_EDGE('',*,*,#783,.T.);
#979=ORIENTED_EDGE('',*,*,#784,.T.);
#980=ORIENTED_EDGE('',*,*,#785,.F.);
#981=ORIENTED_EDGE('',*,*,#786,.F.);
#982=ORIENTED_EDGE('',*,*,#787,.T.);
#983=ORIENTED_EDGE('',*,*,#788,.T.);
#984=ORIENTED_EDGE('',*,*,#783,.F.);
#985=ORIENTED_EDGE('',*,*,#789,.F.);
#986=ORIENTED_EDGE('',*,*,#790,.T.);
#987=ORIENTED_EDGE('',*,*,#791,.T.);
#988=ORIENTED_EDGE('',*,*,#787,.F.);
#989=ORIENTED_EDGE('',*,*,#792,.F.);
#990=ORIENTED_EDGE('',*,*,#785,.T.);
#991=ORIENTED_EDGE('',*,*,#793,.T.);
#992=ORIENTED_EDGE('',*,*,#790,.F.);
#993=ORIENTED_EDGE('',*,*,#777,.T.);
#994=ORIENTED_EDGE('',*,*,#780,.T.);
#995=ORIENTED_EDGE('',*,*,#770,.T.);
#996=ORIENTED_EDGE('',*,*,#774,.T.);
#997=ORIENTED_EDGE('',*,*,#793,.F.);
#998=ORIENTED_EDGE('',*,*,#784,.F.);
#999=ORIENTED_EDGE('',*,*,#788,.F.);
#1000=ORIENTED_EDGE('',*,*,#791,.F.);
#1001=ORIENTED_EDGE('',*,*,#758,.T.);
#1002=ORIENTED_EDGE('',*,*,#761,.T.);
#1003=ORIENTED_EDGE('',*,*,#764,.T.);
#1004=ORIENTED_EDGE('',*,*,#767,.T.);
#1005=ORIENTED_EDGE('',*,*,#794,.F.);
#1006=ORIENTED_EDGE('',*,*,#795,.T.);
#1007=ORIENTED_EDGE('',*,*,#796,.F.);
#1008=ORIENTED_EDGE('',*,*,#797,.F.);
#1009=ORIENTED_EDGE('',*,*,#798,.F.);
#1010=ORIENTED_EDGE('',*,*,#797,.T.);
#1011=ORIENTED_EDGE('',*,*,#799,.F.);
#1012=ORIENTED_EDGE('',*,*,#800,.F.);
#1013=ORIENTED_EDGE('',*,*,#801,.F.);
#1014=ORIENTED_EDGE('',*,*,#800,.T.);
#1015=ORIENTED_EDGE('',*,*,#802,.F.);
#1016=ORIENTED_EDGE('',*,*,#803,.F.);
#1017=ORIENTED_EDGE('',*,*,#804,.F.);
#1018=ORIENTED_EDGE('',*,*,#803,.T.);
#1019=ORIENTED_EDGE('',*,*,#805,.F.);
#1020=ORIENTED_EDGE('',*,*,#795,.F.);
#1021=ORIENTED_EDGE('',*,*,#778,.T.);
#1022=ORIENTED_EDGE('',*,*,#775,.T.);
#1023=ORIENTED_EDGE('',*,*,#772,.T.);
#1024=ORIENTED_EDGE('',*,*,#781,.T.);
#1025=ORIENTED_EDGE('',*,*,#805,.T.);
#1026=ORIENTED_EDGE('',*,*,#802,.T.);
#1027=ORIENTED_EDGE('',*,*,#799,.T.);
#1028=ORIENTED_EDGE('',*,*,#796,.T.);
#1029=ORIENTED_EDGE('',*,*,#804,.T.);
#1030=ORIENTED_EDGE('',*,*,#794,.T.);
#1031=ORIENTED_EDGE('',*,*,#798,.T.);
#1032=ORIENTED_EDGE('',*,*,#801,.T.);
#1033=ORIENTED_EDGE('',*,*,#782,.T.);
#1034=ORIENTED_EDGE('',*,*,#792,.T.);
#1035=ORIENTED_EDGE('',*,*,#789,.T.);
#1036=ORIENTED_EDGE('',*,*,#786,.T.);
#1037=ORIENTED_EDGE('',*,*,#806,.F.);
#1038=ORIENTED_EDGE('',*,*,#807,.T.);
#1039=ORIENTED_EDGE('',*,*,#808,.F.);
#1040=ORIENTED_EDGE('',*,*,#807,.F.);
#1041=ORIENTED_EDGE('',*,*,#809,.F.);
#1042=ORIENTED_EDGE('',*,*,#810,.T.);
#1043=ORIENTED_EDGE('',*,*,#811,.F.);
#1044=ORIENTED_EDGE('',*,*,#810,.F.);
#1045=ORIENTED_EDGE('',*,*,#812,.F.);
#1046=ORIENTED_EDGE('',*,*,#813,.T.);
#1047=ORIENTED_EDGE('',*,*,#814,.F.);
#1048=ORIENTED_EDGE('',*,*,#813,.F.);
#1049=ORIENTED_EDGE('',*,*,#815,.F.);
#1050=ORIENTED_EDGE('',*,*,#816,.T.);
#1051=ORIENTED_EDGE('',*,*,#817,.F.);
#1052=ORIENTED_EDGE('',*,*,#816,.F.);
#1053=ORIENTED_EDGE('',*,*,#818,.F.);
#1054=ORIENTED_EDGE('',*,*,#819,.F.);
#1055=ORIENTED_EDGE('',*,*,#820,.F.);
#1056=ORIENTED_EDGE('',*,*,#821,.T.);
#1057=ORIENTED_EDGE('',*,*,#822,.F.);
#1058=ORIENTED_EDGE('',*,*,#821,.F.);
#1059=ORIENTED_EDGE('',*,*,#823,.F.);
#1060=ORIENTED_EDGE('',*,*,#824,.T.);
#1061=ORIENTED_EDGE('',*,*,#825,.F.);
#1062=ORIENTED_EDGE('',*,*,#824,.F.);
#1063=ORIENTED_EDGE('',*,*,#826,.F.);
#1064=ORIENTED_EDGE('',*,*,#827,.T.);
#1065=ORIENTED_EDGE('',*,*,#828,.F.);
#1066=ORIENTED_EDGE('',*,*,#827,.F.);
#1067=ORIENTED_EDGE('',*,*,#829,.F.);
#1068=ORIENTED_EDGE('',*,*,#819,.T.);
#1069=ORIENTED_EDGE('',*,*,#830,.F.);
#1070=ORIENTED_EDGE('',*,*,#831,.F.);
#1071=ORIENTED_EDGE('',*,*,#832,.F.);
#1072=ORIENTED_EDGE('',*,*,#833,.T.);
#1073=ORIENTED_EDGE('',*,*,#834,.F.);
#1074=ORIENTED_EDGE('',*,*,#833,.F.);
#1075=ORIENTED_EDGE('',*,*,#835,.F.);
#1076=ORIENTED_EDGE('',*,*,#836,.T.);
#1077=ORIENTED_EDGE('',*,*,#837,.F.);
#1078=ORIENTED_EDGE('',*,*,#836,.F.);
#1079=ORIENTED_EDGE('',*,*,#838,.F.);
#1080=ORIENTED_EDGE('',*,*,#839,.T.);
#1081=ORIENTED_EDGE('',*,*,#840,.F.);
#1082=ORIENTED_EDGE('',*,*,#839,.F.);
#1083=ORIENTED_EDGE('',*,*,#841,.F.);
#1084=ORIENTED_EDGE('',*,*,#831,.T.);
#1085=ORIENTED_EDGE('',*,*,#842,.F.);
#1086=ORIENTED_EDGE('',*,*,#843,.F.);
#1087=ORIENTED_EDGE('',*,*,#844,.F.);
#1088=ORIENTED_EDGE('',*,*,#845,.T.);
#1089=ORIENTED_EDGE('',*,*,#846,.F.);
#1090=ORIENTED_EDGE('',*,*,#845,.F.);
#1091=ORIENTED_EDGE('',*,*,#847,.F.);
#1092=ORIENTED_EDGE('',*,*,#848,.T.);
#1093=ORIENTED_EDGE('',*,*,#849,.F.);
#1094=ORIENTED_EDGE('',*,*,#848,.F.);
#1095=ORIENTED_EDGE('',*,*,#850,.F.);
#1096=ORIENTED_EDGE('',*,*,#851,.T.);
#1097=ORIENTED_EDGE('',*,*,#852,.F.);
#1098=ORIENTED_EDGE('',*,*,#851,.F.);
#1099=ORIENTED_EDGE('',*,*,#853,.F.);
#1100=ORIENTED_EDGE('',*,*,#843,.T.);
#1101=ORIENTED_EDGE('',*,*,#854,.F.);
#1102=ORIENTED_EDGE('',*,*,#855,.F.);
#1103=ORIENTED_EDGE('',*,*,#856,.F.);
#1104=ORIENTED_EDGE('',*,*,#857,.T.);
#1105=ORIENTED_EDGE('',*,*,#858,.F.);
#1106=ORIENTED_EDGE('',*,*,#857,.F.);
#1107=ORIENTED_EDGE('',*,*,#859,.F.);
#1108=ORIENTED_EDGE('',*,*,#860,.T.);
#1109=ORIENTED_EDGE('',*,*,#861,.F.);
#1110=ORIENTED_EDGE('',*,*,#860,.F.);
#1111=ORIENTED_EDGE('',*,*,#862,.F.);
#1112=ORIENTED_EDGE('',*,*,#863,.T.);
#1113=ORIENTED_EDGE('',*,*,#864,.F.);
#1114=ORIENTED_EDGE('',*,*,#863,.F.);
#1115=ORIENTED_EDGE('',*,*,#865,.F.);
#1116=ORIENTED_EDGE('',*,*,#855,.T.);
#1117=ORIENTED_EDGE('',*,*,#866,.F.);
#1118=ORIENTED_EDGE('',*,*,#867,.F.);
#1119=ORIENTED_EDGE('',*,*,#868,.F.);
#1120=ORIENTED_EDGE('',*,*,#869,.T.);
#1121=ORIENTED_EDGE('',*,*,#870,.F.);
#1122=ORIENTED_EDGE('',*,*,#869,.F.);
#1123=ORIENTED_EDGE('',*,*,#871,.F.);
#1124=ORIENTED_EDGE('',*,*,#872,.T.);
#1125=ORIENTED_EDGE('',*,*,#873,.F.);
#1126=ORIENTED_EDGE('',*,*,#872,.F.);
#1127=ORIENTED_EDGE('',*,*,#874,.F.);
#1128=ORIENTED_EDGE('',*,*,#875,.T.);
#1129=ORIENTED_EDGE('',*,*,#876,.F.);
#1130=ORIENTED_EDGE('',*,*,#875,.F.);
#1131=ORIENTED_EDGE('',*,*,#877,.F.);
#1132=ORIENTED_EDGE('',*,*,#867,.T.);
#1133=ORIENTED_EDGE('',*,*,#878,.F.);
#1134=ORIENTED_EDGE('',*,*,#879,.F.);
#1135=ORIENTED_EDGE('',*,*,#880,.F.);
#1136=ORIENTED_EDGE('',*,*,#881,.T.);
#1137=ORIENTED_EDGE('',*,*,#882,.F.);
#1138=ORIENTED_EDGE('',*,*,#881,.F.);
#1139=ORIENTED_EDGE('',*,*,#883,.F.);
#1140=ORIENTED_EDGE('',*,*,#884,.T.);
#1141=ORIENTED_EDGE('',*,*,#885,.F.);
#1142=ORIENTED_EDGE('',*,*,#884,.F.);
#1143=ORIENTED_EDGE('',*,*,#886,.F.);
#1144=ORIENTED_EDGE('',*,*,#887,.T.);
#1145=ORIENTED_EDGE('',*,*,#888,.F.);
#1146=ORIENTED_EDGE('',*,*,#887,.F.);
#1147=ORIENTED_EDGE('',*,*,#889,.F.);
#1148=ORIENTED_EDGE('',*,*,#879,.T.);
#1149=ORIENTED_EDGE('',*,*,#890,.F.);
#1150=ORIENTED_EDGE('',*,*,#891,.F.);
#1151=ORIENTED_EDGE('',*,*,#892,.F.);
#1152=ORIENTED_EDGE('',*,*,#893,.T.);
#1153=ORIENTED_EDGE('',*,*,#894,.F.);
#1154=ORIENTED_EDGE('',*,*,#893,.F.);
#1155=ORIENTED_EDGE('',*,*,#895,.F.);
#1156=ORIENTED_EDGE('',*,*,#896,.T.);
#1157=ORIENTED_EDGE('',*,*,#897,.F.);
#1158=ORIENTED_EDGE('',*,*,#896,.F.);
#1159=ORIENTED_EDGE('',*,*,#898,.F.);
#1160=ORIENTED_EDGE('',*,*,#899,.T.);
#1161=ORIENTED_EDGE('',*,*,#900,.F.);
#1162=ORIENTED_EDGE('',*,*,#899,.F.);
#1163=ORIENTED_EDGE('',*,*,#901,.F.);
#1164=ORIENTED_EDGE('',*,*,#891,.T.);
#1165=ORIENTED_EDGE('',*,*,#902,.F.);
#1166=ORIENTED_EDGE('',*,*,#903,.F.);
#1167=ORIENTED_EDGE('',*,*,#904,.F.);
#1168=ORIENTED_EDGE('',*,*,#905,.T.);
#1169=ORIENTED_EDGE('',*,*,#906,.F.);
#1170=ORIENTED_EDGE('',*,*,#905,.F.);
#1171=ORIENTED_EDGE('',*,*,#907,.F.);
#1172=ORIENTED_EDGE('',*,*,#908,.T.);
#1173=ORIENTED_EDGE('',*,*,#909,.F.);
#1174=ORIENTED_EDGE('',*,*,#908,.F.);
#1175=ORIENTED_EDGE('',*,*,#910,.F.);
#1176=ORIENTED_EDGE('',*,*,#911,.T.);
#1177=ORIENTED_EDGE('',*,*,#912,.F.);
#1178=ORIENTED_EDGE('',*,*,#911,.F.);
#1179=ORIENTED_EDGE('',*,*,#913,.F.);
#1180=ORIENTED_EDGE('',*,*,#903,.T.);
#1181=ORIENTED_EDGE('',*,*,#914,.F.);
#1182=ORIENTED_EDGE('',*,*,#915,.F.);
#1183=ORIENTED_EDGE('',*,*,#916,.F.);
#1184=ORIENTED_EDGE('',*,*,#917,.T.);
#1185=ORIENTED_EDGE('',*,*,#918,.F.);
#1186=ORIENTED_EDGE('',*,*,#917,.F.);
#1187=ORIENTED_EDGE('',*,*,#919,.F.);
#1188=ORIENTED_EDGE('',*,*,#920,.T.);
#1189=ORIENTED_EDGE('',*,*,#921,.F.);
#1190=ORIENTED_EDGE('',*,*,#920,.F.);
#1191=ORIENTED_EDGE('',*,*,#922,.F.);
#1192=ORIENTED_EDGE('',*,*,#923,.T.);
#1193=ORIENTED_EDGE('',*,*,#924,.F.);
#1194=ORIENTED_EDGE('',*,*,#923,.F.);
#1195=ORIENTED_EDGE('',*,*,#925,.F.);
#1196=ORIENTED_EDGE('',*,*,#915,.T.);
#1197=ORIENTED_EDGE('',*,*,#926,.F.);
#1198=ORIENTED_EDGE('',*,*,#927,.T.);
#1199=ORIENTED_EDGE('',*,*,#928,.F.);
#1200=ORIENTED_EDGE('',*,*,#927,.F.);
#1201=ORIENTED_EDGE('',*,*,#929,.T.);
#1202=ORIENTED_EDGE('',*,*,#930,.T.);
#1203=ORIENTED_EDGE('',*,*,#931,.F.);
#1204=ORIENTED_EDGE('',*,*,#932,.F.);
#1205=ORIENTED_EDGE('',*,*,#933,.T.);
#1206=ORIENTED_EDGE('',*,*,#932,.T.);
#1207=ORIENTED_EDGE('',*,*,#934,.F.);
#1208=ORIENTED_EDGE('',*,*,#935,.F.);
#1209=ORIENTED_EDGE('',*,*,#936,.T.);
#1210=ORIENTED_EDGE('',*,*,#935,.T.);
#1211=ORIENTED_EDGE('',*,*,#937,.F.);
#1212=ORIENTED_EDGE('',*,*,#938,.F.);
#1213=ORIENTED_EDGE('',*,*,#939,.T.);
#1214=ORIENTED_EDGE('',*,*,#938,.T.);
#1215=ORIENTED_EDGE('',*,*,#940,.F.);
#1216=ORIENTED_EDGE('',*,*,#930,.F.);
#1217=ORIENTED_EDGE('',*,*,#939,.F.);
#1218=ORIENTED_EDGE('',*,*,#929,.F.);
#1219=ORIENTED_EDGE('',*,*,#933,.F.);
#1220=ORIENTED_EDGE('',*,*,#936,.F.);
#1221=ORIENTED_EDGE('',*,*,#811,.T.);
#1222=ORIENTED_EDGE('',*,*,#817,.T.);
#1223=ORIENTED_EDGE('',*,*,#837,.T.);
#1224=ORIENTED_EDGE('',*,*,#840,.T.);
#1225=ORIENTED_EDGE('',*,*,#830,.T.);
#1226=ORIENTED_EDGE('',*,*,#834,.T.);
#1227=ORIENTED_EDGE('',*,*,#849,.T.);
#1228=ORIENTED_EDGE('',*,*,#852,.T.);
#1229=ORIENTED_EDGE('',*,*,#842,.T.);
#1230=ORIENTED_EDGE('',*,*,#846,.T.);
#1231=ORIENTED_EDGE('',*,*,#861,.T.);
#1232=ORIENTED_EDGE('',*,*,#864,.T.);
#1233=ORIENTED_EDGE('',*,*,#854,.T.);
#1234=ORIENTED_EDGE('',*,*,#858,.T.);
#1235=ORIENTED_EDGE('',*,*,#873,.T.);
#1236=ORIENTED_EDGE('',*,*,#876,.T.);
#1237=ORIENTED_EDGE('',*,*,#866,.T.);
#1238=ORIENTED_EDGE('',*,*,#870,.T.);
#1239=ORIENTED_EDGE('',*,*,#885,.T.);
#1240=ORIENTED_EDGE('',*,*,#888,.T.);
#1241=ORIENTED_EDGE('',*,*,#878,.T.);
#1242=ORIENTED_EDGE('',*,*,#882,.T.);
#1243=ORIENTED_EDGE('',*,*,#897,.T.);
#1244=ORIENTED_EDGE('',*,*,#900,.T.);
#1245=ORIENTED_EDGE('',*,*,#890,.T.);
#1246=ORIENTED_EDGE('',*,*,#894,.T.);
#1247=ORIENTED_EDGE('',*,*,#909,.T.);
#1248=ORIENTED_EDGE('',*,*,#912,.T.);
#1249=ORIENTED_EDGE('',*,*,#902,.T.);
#1250=ORIENTED_EDGE('',*,*,#906,.T.);
#1251=ORIENTED_EDGE('',*,*,#921,.T.);
#1252=ORIENTED_EDGE('',*,*,#924,.T.);
#1253=ORIENTED_EDGE('',*,*,#914,.T.);
#1254=ORIENTED_EDGE('',*,*,#918,.T.);
#1255=ORIENTED_EDGE('',*,*,#928,.T.);
#1256=ORIENTED_EDGE('',*,*,#825,.T.);
#1257=ORIENTED_EDGE('',*,*,#828,.T.);
#1258=ORIENTED_EDGE('',*,*,#818,.T.);
#1259=ORIENTED_EDGE('',*,*,#822,.T.);
#1260=ORIENTED_EDGE('',*,*,#814,.T.);
#1261=ORIENTED_EDGE('',*,*,#808,.T.);
#1262=ORIENTED_EDGE('',*,*,#940,.T.);
#1263=ORIENTED_EDGE('',*,*,#937,.T.);
#1264=ORIENTED_EDGE('',*,*,#934,.T.);
#1265=ORIENTED_EDGE('',*,*,#931,.T.);
#1266=ORIENTED_EDGE('',*,*,#809,.T.);
#1267=ORIENTED_EDGE('',*,*,#815,.T.);
#1268=ORIENTED_EDGE('',*,*,#838,.T.);
#1269=ORIENTED_EDGE('',*,*,#835,.T.);
#1270=ORIENTED_EDGE('',*,*,#832,.T.);
#1271=ORIENTED_EDGE('',*,*,#841,.T.);
#1272=ORIENTED_EDGE('',*,*,#850,.T.);
#1273=ORIENTED_EDGE('',*,*,#847,.T.);
#1274=ORIENTED_EDGE('',*,*,#844,.T.);
#1275=ORIENTED_EDGE('',*,*,#853,.T.);
#1276=ORIENTED_EDGE('',*,*,#862,.T.);
#1277=ORIENTED_EDGE('',*,*,#859,.T.);
#1278=ORIENTED_EDGE('',*,*,#856,.T.);
#1279=ORIENTED_EDGE('',*,*,#865,.T.);
#1280=ORIENTED_EDGE('',*,*,#874,.T.);
#1281=ORIENTED_EDGE('',*,*,#871,.T.);
#1282=ORIENTED_EDGE('',*,*,#868,.T.);
#1283=ORIENTED_EDGE('',*,*,#877,.T.);
#1284=ORIENTED_EDGE('',*,*,#886,.T.);
#1285=ORIENTED_EDGE('',*,*,#883,.T.);
#1286=ORIENTED_EDGE('',*,*,#880,.T.);
#1287=ORIENTED_EDGE('',*,*,#889,.T.);
#1288=ORIENTED_EDGE('',*,*,#898,.T.);
#1289=ORIENTED_EDGE('',*,*,#895,.T.);
#1290=ORIENTED_EDGE('',*,*,#892,.T.);
#1291=ORIENTED_EDGE('',*,*,#901,.T.);
#1292=ORIENTED_EDGE('',*,*,#910,.T.);
#1293=ORIENTED_EDGE('',*,*,#907,.T.);
#1294=ORIENTED_EDGE('',*,*,#904,.T.);
#1295=ORIENTED_EDGE('',*,*,#913,.T.);
#1296=ORIENTED_EDGE('',*,*,#922,.T.);
#1297=ORIENTED_EDGE('',*,*,#919,.T.);
#1298=ORIENTED_EDGE('',*,*,#916,.T.);
#1299=ORIENTED_EDGE('',*,*,#925,.T.);
#1300=ORIENTED_EDGE('',*,*,#926,.T.);
#1301=ORIENTED_EDGE('',*,*,#826,.T.);
#1302=ORIENTED_EDGE('',*,*,#823,.T.);
#1303=ORIENTED_EDGE('',*,*,#820,.T.);
#1304=ORIENTED_EDGE('',*,*,#829,.T.);
#1305=ORIENTED_EDGE('',*,*,#812,.T.);
#1306=ORIENTED_EDGE('',*,*,#806,.T.);
#1307=CYLINDRICAL_SURFACE('',#1401,1.6);
#1308=CYLINDRICAL_SURFACE('',#1405,1.6);
#1309=CYLINDRICAL_SURFACE('',#1409,1.6);
#1310=CYLINDRICAL_SURFACE('',#1413,1.6);
#1311=CYLINDRICAL_SURFACE('',#1432,1.6);
#1312=CYLINDRICAL_SURFACE('',#1435,1.6);
#1313=CYLINDRICAL_SURFACE('',#1438,1.6);
#1314=CYLINDRICAL_SURFACE('',#1441,1.6);
#1315=CYLINDRICAL_SURFACE('',#1480,3.99999999999999);
#1316=ADVANCED_FACE('',(#113),#1307,.F.);
#1317=ADVANCED_FACE('',(#114),#52,.T.);
#1318=ADVANCED_FACE('',(#115),#1308,.F.);
#1319=ADVANCED_FACE('',(#116),#53,.T.);
#1320=ADVANCED_FACE('',(#117),#1309,.F.);
#1321=ADVANCED_FACE('',(#118),#54,.T.);
#1322=ADVANCED_FACE('',(#119),#1310,.F.);
#1323=ADVANCED_FACE('',(#120),#55,.T.);
#1324=ADVANCED_FACE('',(#121),#56,.F.);
#1325=ADVANCED_FACE('',(#122),#57,.F.);
#1326=ADVANCED_FACE('',(#123),#58,.F.);
#1327=ADVANCED_FACE('',(#124),#59,.F.);
#1328=ADVANCED_FACE('',(#125),#60,.F.);
#1329=ADVANCED_FACE('',(#126),#61,.F.);
#1330=ADVANCED_FACE('',(#127),#62,.F.);
#1331=ADVANCED_FACE('',(#128,#17),#63,.F.);
#1332=ADVANCED_FACE('',(#129,#18,#19,#20,#21),#64,.F.);
#1333=ADVANCED_FACE('',(#130),#65,.T.);
#1334=ADVANCED_FACE('',(#131),#66,.T.);
#1335=ADVANCED_FACE('',(#132),#67,.T.);
#1336=ADVANCED_FACE('',(#133,#22),#68,.T.);
#1337=ADVANCED_FACE('',(#134),#69,.T.);
#1338=ADVANCED_FACE('',(#135,#23),#70,.F.);
#1339=ADVANCED_FACE('',(#136),#1311,.F.);
#1340=ADVANCED_FACE('',(#137),#1312,.F.);
#1341=ADVANCED_FACE('',(#138),#1313,.F.);
#1342=ADVANCED_FACE('',(#139),#1314,.F.);
#1343=ADVANCED_FACE('',(#140),#71,.F.);
#1344=ADVANCED_FACE('',(#141),#72,.F.);
#1345=ADVANCED_FACE('',(#142),#73,.F.);
#1346=ADVANCED_FACE('',(#143),#74,.F.);
#1347=ADVANCED_FACE('',(#144),#75,.F.);
#1348=ADVANCED_FACE('',(#145),#76,.F.);
#1349=ADVANCED_FACE('',(#146),#77,.F.);
#1350=ADVANCED_FACE('',(#147),#78,.F.);
#1351=ADVANCED_FACE('',(#148),#79,.F.);
#1352=ADVANCED_FACE('',(#149),#80,.F.);
#1353=ADVANCED_FACE('',(#150),#81,.F.);
#1354=ADVANCED_FACE('',(#151),#82,.F.);
#1355=ADVANCED_FACE('',(#152),#83,.F.);
#1356=ADVANCED_FACE('',(#153),#84,.F.);
#1357=ADVANCED_FACE('',(#154),#85,.F.);
#1358=ADVANCED_FACE('',(#155),#86,.F.);
#1359=ADVANCED_FACE('',(#156),#87,.F.);
#1360=ADVANCED_FACE('',(#157),#88,.F.);
#1361=ADVANCED_FACE('',(#158),#89,.F.);
#1362=ADVANCED_FACE('',(#159),#90,.F.);
#1363=ADVANCED_FACE('',(#160),#91,.F.);
#1364=ADVANCED_FACE('',(#161),#92,.F.);
#1365=ADVANCED_FACE('',(#162),#93,.F.);
#1366=ADVANCED_FACE('',(#163),#94,.F.);
#1367=ADVANCED_FACE('',(#164),#95,.F.);
#1368=ADVANCED_FACE('',(#165),#96,.F.);
#1369=ADVANCED_FACE('',(#166),#97,.F.);
#1370=ADVANCED_FACE('',(#167),#98,.F.);
#1371=ADVANCED_FACE('',(#168),#99,.F.);
#1372=ADVANCED_FACE('',(#169),#100,.F.);
#1373=ADVANCED_FACE('',(#170),#101,.F.);
#1374=ADVANCED_FACE('',(#171),#102,.F.);
#1375=ADVANCED_FACE('',(#172),#103,.F.);
#1376=ADVANCED_FACE('',(#173),#104,.F.);
#1377=ADVANCED_FACE('',(#174),#105,.F.);
#1378=ADVANCED_FACE('',(#175),#106,.F.);
#1379=ADVANCED_FACE('',(#176),#1315,.F.);
#1380=ADVANCED_FACE('',(#177),#107,.T.);
#1381=ADVANCED_FACE('',(#178),#108,.T.);
#1382=ADVANCED_FACE('',(#179),#109,.T.);
#1383=ADVANCED_FACE('',(#180),#110,.T.);
#1384=ADVANCED_FACE('',(#181,#24,#25,#26,#27,#28,#29,#30,#31,#32,#33,#34,
#35,#36,#37),#111,.T.);
#1385=ADVANCED_FACE('',(#182,#38,#39,#40,#41,#42,#43,#44,#45,#46,#47,#48,
#49,#50,#51),#112,.T.);
#1386=CLOSED_SHELL('',(#1316,#1317,#1318,#1319,#1320,#1321,#1322,#1323,
#1324,#1325,#1326,#1327,#1328,#1329,#1330,#1331,#1332,#1333,#1334,#1335,
#1336,#1337,#1338));
#1387=CLOSED_SHELL('',(#1339,#1340,#1341,#1342,#1343,#1344,#1345,#1346,
#1347,#1348,#1349,#1350,#1351,#1352,#1353,#1354,#1355,#1356,#1357,#1358,
#1359,#1360,#1361,#1362,#1363,#1364,#1365,#1366,#1367,#1368,#1369,#1370,
#1371,#1372,#1373,#1374,#1375,#1376,#1377,#1378,#1379,#1380,#1381,#1382,
#1383,#1384,#1385));
#1388=DERIVED_UNIT_ELEMENT(#1390,1.);
#1389=DERIVED_UNIT_ELEMENT(#2213,-3.);
#1390=(
MASS_UNIT()
NAMED_UNIT(*)
SI_UNIT(.KILO.,.GRAM.)
);
#1391=DERIVED_UNIT((#1388,#1389));
#1392=MEASURE_REPRESENTATION_ITEM('density measure',
POSITIVE_RATIO_MEASURE(7850.),#1391);
#1393=PROPERTY_DEFINITION_REPRESENTATION(#1398,#1395);
#1394=PROPERTY_DEFINITION_REPRESENTATION(#1399,#1396);
#1395=REPRESENTATION('material name',(#1397),#2210);
#1396=REPRESENTATION('density',(#1392),#2210);
#1397=DESCRIPTIVE_REPRESENTATION_ITEM('Steel','Steel');
#1398=PROPERTY_DEFINITION('material property','material name',#2220);
#1399=PROPERTY_DEFINITION('material property','density of part',#2220);
#1400=AXIS2_PLACEMENT_3D('',#1832,#1489,#1490);
#1401=AXIS2_PLACEMENT_3D('',#1833,#1491,#1492);
#1402=AXIS2_PLACEMENT_3D('',#1835,#1493,#1494);
#1403=AXIS2_PLACEMENT_3D('',#1838,#1496,#1497);
#1404=AXIS2_PLACEMENT_3D('',#1839,#1498,#1499);
#1405=AXIS2_PLACEMENT_3D('',#1840,#1500,#1501);
#1406=AXIS2_PLACEMENT_3D('',#1842,#1502,#1503);
#1407=AXIS2_PLACEMENT_3D('',#1845,#1505,#1506);
#1408=AXIS2_PLACEMENT_3D('',#1846,#1507,#1508);
#1409=AXIS2_PLACEMENT_3D('',#1847,#1509,#1510);
#1410=AXIS2_PLACEMENT_3D('',#1849,#1511,#1512);
#1411=AXIS2_PLACEMENT_3D('',#1852,#1514,#1515);
#1412=AXIS2_PLACEMENT_3D('',#1853,#1516,#1517);
#1413=AXIS2_PLACEMENT_3D('',#1854,#1518,#1519);
#1414=AXIS2_PLACEMENT_3D('',#1856,#1520,#1521);
#1415=AXIS2_PLACEMENT_3D('',#1859,#1523,#1524);
#1416=AXIS2_PLACEMENT_3D('',#1860,#1525,#1526);
#1417=AXIS2_PLACEMENT_3D('',#1861,#1527,#1528);
#1418=AXIS2_PLACEMENT_3D('',#1870,#1533,#1534);
#1419=AXIS2_PLACEMENT_3D('',#1876,#1538,#1539);
#1420=AXIS2_PLACEMENT_3D('',#1882,#1543,#1544);
#1421=AXIS2_PLACEMENT_3D('',#1885,#1547,#1548);
#1422=AXIS2_PLACEMENT_3D('',#1894,#1553,#1554);
#1423=AXIS2_PLACEMENT_3D('',#1900,#1558,#1559);
#1424=AXIS2_PLACEMENT_3D('',#1906,#1563,#1564);
#1425=AXIS2_PLACEMENT_3D('',#1909,#1567,#1568);
#1426=AXIS2_PLACEMENT_3D('',#1910,#1569,#1570);
#1427=AXIS2_PLACEMENT_3D('',#1919,#1575,#1576);
#1428=AXIS2_PLACEMENT_3D('',#1925,#1580,#1581);
#1429=AXIS2_PLACEMENT_3D('',#1931,#1585,#1586);
#1430=AXIS2_PLACEMENT_3D('',#1934,#1589,#1590);
#1431=AXIS2_PLACEMENT_3D('',#1935,#1591,#1592);
#1432=AXIS2_PLACEMENT_3D('',#1936,#1593,#1594);
#1433=AXIS2_PLACEMENT_3D('',#1938,#1595,#1596);
#1434=AXIS2_PLACEMENT_3D('',#1941,#1598,#1599);
#1435=AXIS2_PLACEMENT_3D('',#1942,#1600,#1601);
#1436=AXIS2_PLACEMENT_3D('',#1944,#1602,#1603);
#1437=AXIS2_PLACEMENT_3D('',#1947,#1605,#1606);
#1438=AXIS2_PLACEMENT_3D('',#1948,#1607,#1608);
#1439=AXIS2_PLACEMENT_3D('',#1950,#1609,#1610);
#1440=AXIS2_PLACEMENT_3D('',#1953,#1612,#1613);
#1441=AXIS2_PLACEMENT_3D('',#1954,#1614,#1615);
#1442=AXIS2_PLACEMENT_3D('',#1956,#1616,#1617);
#1443=AXIS2_PLACEMENT_3D('',#1959,#1619,#1620);
#1444=AXIS2_PLACEMENT_3D('',#1960,#1621,#1622);
#1445=AXIS2_PLACEMENT_3D('',#1969,#1627,#1628);
#1446=AXIS2_PLACEMENT_3D('',#1975,#1632,#1633);
#1447=AXIS2_PLACEMENT_3D('',#1981,#1637,#1638);
#1448=AXIS2_PLACEMENT_3D('',#1984,#1641,#1642);
#1449=AXIS2_PLACEMENT_3D('',#1993,#1647,#1648);
#1450=AXIS2_PLACEMENT_3D('',#1999,#1652,#1653);
#1451=AXIS2_PLACEMENT_3D('',#2005,#1657,#1658);
#1452=AXIS2_PLACEMENT_3D('',#2008,#1661,#1662);
#1453=AXIS2_PLACEMENT_3D('',#2017,#1667,#1668);
#1454=AXIS2_PLACEMENT_3D('',#2023,#1672,#1673);
#1455=AXIS2_PLACEMENT_3D('',#2029,#1677,#1678);
#1456=AXIS2_PLACEMENT_3D('',#2032,#1681,#1682);
#1457=AXIS2_PLACEMENT_3D('',#2041,#1687,#1688);
#1458=AXIS2_PLACEMENT_3D('',#2047,#1692,#1693);
#1459=AXIS2_PLACEMENT_3D('',#2053,#1697,#1698);
#1460=AXIS2_PLACEMENT_3D('',#2056,#1701,#1702);
#1461=AXIS2_PLACEMENT_3D('',#2065,#1707,#1708);
#1462=AXIS2_PLACEMENT_3D('',#2071,#1712,#1713);
#1463=AXIS2_PLACEMENT_3D('',#2077,#1717,#1718);
#1464=AXIS2_PLACEMENT_3D('',#2080,#1721,#1722);
#1465=AXIS2_PLACEMENT_3D('',#2089,#1727,#1728);
#1466=AXIS2_PLACEMENT_3D('',#2095,#1732,#1733);
#1467=AXIS2_PLACEMENT_3D('',#2101,#1737,#1738);
#1468=AXIS2_PLACEMENT_3D('',#2104,#1741,#1742);
#1469=AXIS2_PLACEMENT_3D('',#2113,#1747,#1748);
#1470=AXIS2_PLACEMENT_3D('',#2119,#1752,#1753);
#1471=AXIS2_PLACEMENT_3D('',#2125,#1757,#1758);
#1472=AXIS2_PLACEMENT_3D('',#2128,#1761,#1762);
#1473=AXIS2_PLACEMENT_3D('',#2137,#1767,#1768);
#1474=AXIS2_PLACEMENT_3D('',#2143,#1772,#1773);
#1475=AXIS2_PLACEMENT_3D('',#2149,#1777,#1778);
#1476=AXIS2_PLACEMENT_3D('',#2152,#1781,#1782);
#1477=AXIS2_PLACEMENT_3D('',#2161,#1787,#1788);
#1478=AXIS2_PLACEMENT_3D('',#2167,#1792,#1793);
#1479=AXIS2_PLACEMENT_3D('',#2173,#1797,#1798);
#1480=AXIS2_PLACEMENT_3D('',#2176,#1801,#1802);
#1481=AXIS2_PLACEMENT_3D('',#2178,#1803,#1804);
#1482=AXIS2_PLACEMENT_3D('',#2181,#1806,#1807);
#1483=AXIS2_PLACEMENT_3D('',#2182,#1808,#1809);
#1484=AXIS2_PLACEMENT_3D('',#2191,#1814,#1815);
#1485=AXIS2_PLACEMENT_3D('',#2197,#1819,#1820);
#1486=AXIS2_PLACEMENT_3D('',#2203,#1824,#1825);
#1487=AXIS2_PLACEMENT_3D('',#2206,#1828,#1829);
#1488=AXIS2_PLACEMENT_3D('',#2207,#1830,#1831);
#1489=DIRECTION('axis',(0.,0.,1.));
#1490=DIRECTION('refdir',(1.,0.,0.));
#1491=DIRECTION('center_axis',(0.,0.,1.));
#1492=DIRECTION('ref_axis',(1.,0.,0.));
#1493=DIRECTION('center_axis',(0.,0.,1.));
#1494=DIRECTION('ref_axis',(1.,0.,0.));
#1495=DIRECTION('',(0.,0.,1.));
#1496=DIRECTION('center_axis',(0.,0.,1.));
#1497=DIRECTION('ref_axis',(1.,0.,0.));
#1498=DIRECTION('center_axis',(0.,0.,-1.));
#1499=DIRECTION('ref_axis',(1.,0.,0.));
#1500=DIRECTION('center_axis',(0.,0.,1.));
#1501=DIRECTION('ref_axis',(1.,0.,0.));
#1502=DIRECTION('center_axis',(0.,0.,1.));
#1503=DIRECTION('ref_axis',(1.,0.,0.));
#1504=DIRECTION('',(0.,0.,1.));
#1505=DIRECTION('center_axis',(0.,0.,1.));
#1506=DIRECTION('ref_axis',(1.,0.,0.));
#1507=DIRECTION('center_axis',(0.,0.,-1.));
#1508=DIRECTION('ref_axis',(1.,0.,0.));
#1509=DIRECTION('center_axis',(0.,0.,1.));
#1510=DIRECTION('ref_axis',(1.,0.,0.));
#1511=DIRECTION('center_axis',(0.,0.,1.));
#1512=DIRECTION('ref_axis',(1.,0.,0.));
#1513=DIRECTION('',(0.,0.,1.));
#1514=DIRECTION('center_axis',(0.,0.,1.));
#1515=DIRECTION('ref_axis',(1.,0.,0.));
#1516=DIRECTION('center_axis',(0.,0.,-1.));
#1517=DIRECTION('ref_axis',(1.,0.,0.));
#1518=DIRECTION('center_axis',(0.,0.,1.));
#1519=DIRECTION('ref_axis',(1.,0.,0.));
#1520=DIRECTION('center_axis',(0.,0.,1.));
#1521=DIRECTION('ref_axis',(1.,0.,0.));
#1522=DIRECTION('',(0.,0.,1.));
#1523=DIRECTION('center_axis',(0.,0.,1.));
#1524=DIRECTION('ref_axis',(1.,0.,0.));
#1525=DIRECTION('center_axis',(0.,0.,-1.));
#1526=DIRECTION('ref_axis',(1.,0.,0.));
#1527=DIRECTION('center_axis',(0.,0.,-1.));
#1528=DIRECTION('ref_axis',(-1.,0.,0.));
#1529=DIRECTION('',(1.,0.,0.));
#1530=DIRECTION('',(0.,1.,0.));
#1531=DIRECTION('',(-1.,0.,0.));
#1532=DIRECTION('',(0.,1.,0.));
#1533=DIRECTION('center_axis',(1.,0.,0.));
#1534=DIRECTION('ref_axis',(0.,0.,-1.));
#1535=DIRECTION('',(0.,0.,1.));
#1536=DIRECTION('',(0.,0.,-1.));
#1537=DIRECTION('',(0.,1.,0.));
#1538=DIRECTION('center_axis',(0.,0.,1.));
#1539=DIRECTION('ref_axis',(1.,0.,0.));
#1540=DIRECTION('',(-1.,0.,0.));
#1541=DIRECTION('',(1.,0.,0.));
#1542=DIRECTION('',(0.,1.,0.));
#1543=DIRECTION('center_axis',(-1.,0.,0.));
#1544=DIRECTION('ref_axis',(0.,0.,1.));
#1545=DIRECTION('',(0.,0.,-1.));
#1546=DIRECTION('',(0.,0.,1.));
#1547=DIRECTION('center_axis',(-1.,0.,0.));
#1548=DIRECTION('ref_axis',(0.,-1.,0.));
#1549=DIRECTION('',(0.,-1.,0.));
#1550=DIRECTION('',(0.,0.,-1.));
#1551=DIRECTION('',(0.,1.,0.));
#1552=DIRECTION('',(0.,0.,1.));
#1553=DIRECTION('center_axis',(0.,1.,0.));
#1554=DIRECTION('ref_axis',(-1.,0.,0.));
#1555=DIRECTION('',(-1.,0.,0.));
#1556=DIRECTION('',(0.,0.,-1.));
#1557=DIRECTION('',(1.,0.,0.));
#1558=DIRECTION('center_axis',(1.,0.,0.));
#1559=DIRECTION('ref_axis',(0.,1.,0.));
#1560=DIRECTION('',(0.,1.,0.));
#1561=DIRECTION('',(0.,0.,-1.));
#1562=DIRECTION('',(0.,-1.,0.));
#1563=DIRECTION('center_axis',(0.,-1.,0.));
#1564=DIRECTION('ref_axis',(1.,0.,0.));
#1565=DIRECTION('',(1.,0.,0.));
#1566=DIRECTION('',(-1.,0.,0.));
#1567=DIRECTION('center_axis',(0.,0.,1.));
#1568=DIRECTION('ref_axis',(1.,0.,0.));
#1569=DIRECTION('center_axis',(-1.,0.,0.));
#1570=DIRECTION('ref_axis',(0.,-1.,0.));
#1571=DIRECTION('',(0.,1.,0.));
#1572=DIRECTION('',(0.,0.,1.));
#1573=DIRECTION('',(0.,-1.,0.));
#1574=DIRECTION('',(0.,0.,1.));
#1575=DIRECTION('center_axis',(0.,1.,0.));
#1576=DIRECTION('ref_axis',(-1.,0.,0.));
#1577=DIRECTION('',(1.,0.,0.));
#1578=DIRECTION('',(-1.,0.,0.));
#1579=DIRECTION('',(0.,0.,1.));
#1580=DIRECTION('center_axis',(1.,0.,0.));
#1581=DIRECTION('ref_axis',(0.,1.,0.));
#1582=DIRECTION('',(0.,-1.,0.));
#1583=DIRECTION('',(0.,1.,0.));
#1584=DIRECTION('',(0.,0.,1.));
#1585=DIRECTION('center_axis',(0.,-1.,0.));
#1586=DIRECTION('ref_axis',(1.,0.,0.));
#1587=DIRECTION('',(-1.,0.,0.));
#1588=DIRECTION('',(1.,0.,0.));
#1589=DIRECTION('center_axis',(0.,0.,1.));
#1590=DIRECTION('ref_axis',(1.,0.,0.));
#1591=DIRECTION('center_axis',(0.,0.,1.));
#1592=DIRECTION('ref_axis',(1.,0.,0.));
#1593=DIRECTION('center_axis',(0.,0.,1.));
#1594=DIRECTION('ref_axis',(1.,0.,0.));
#1595=DIRECTION('center_axis',(0.,0.,1.));
#1596=DIRECTION('ref_axis',(1.,0.,0.));
#1597=DIRECTION('',(0.,0.,1.));
#1598=DIRECTION('center_axis',(0.,0.,-1.));
#1599=DIRECTION('ref_axis',(1.,0.,0.));
#1600=DIRECTION('center_axis',(0.,0.,1.));
#1601=DIRECTION('ref_axis',(1.,0.,0.));
#1602=DIRECTION('center_axis',(0.,0.,1.));
#1603=DIRECTION('ref_axis',(1.,0.,0.));
#1604=DIRECTION('',(0.,0.,1.));
#1605=DIRECTION('center_axis',(0.,0.,-1.));
#1606=DIRECTION('ref_axis',(1.,0.,0.));
#1607=DIRECTION('center_axis',(0.,0.,1.));
#1608=DIRECTION('ref_axis',(1.,0.,0.));
#1609=DIRECTION('center_axis',(0.,0.,1.));
#1610=DIRECTION('ref_axis',(1.,0.,0.));
#1611=DIRECTION('',(0.,0.,1.));
#1612=DIRECTION('center_axis',(0.,0.,-1.));
#1613=DIRECTION('ref_axis',(1.,0.,0.));
#1614=DIRECTION('center_axis',(0.,0.,1.));
#1615=DIRECTION('ref_axis',(1.,0.,0.));
#1616=DIRECTION('center_axis',(0.,0.,1.));
#1617=DIRECTION('ref_axis',(1.,0.,0.));
#1618=DIRECTION('',(0.,0.,1.));
#1619=DIRECTION('center_axis',(0.,0.,-1.));
#1620=DIRECTION('ref_axis',(1.,0.,0.));
#1621=DIRECTION('center_axis',(1.,0.,0.));
#1622=DIRECTION('ref_axis',(0.,1.,0.));
#1623=DIRECTION('',(0.,-1.,0.));
#1624=DIRECTION('',(0.,0.,1.));
#1625=DIRECTION('',(0.,1.,0.));
#1626=DIRECTION('',(0.,0.,1.));
#1627=DIRECTION('center_axis',(0.,-1.,0.));
#1628=DIRECTION('ref_axis',(1.,0.,0.));
#1629=DIRECTION('',(-1.,0.,0.));
#1630=DIRECTION('',(1.,0.,0.));
#1631=DIRECTION('',(0.,0.,1.));
#1632=DIRECTION('center_axis',(-1.,0.,0.));
#1633=DIRECTION('ref_axis',(0.,-1.,0.));
#1634=DIRECTION('',(0.,1.,0.));
#1635=DIRECTION('',(0.,-1.,0.));
#1636=DIRECTION('',(0.,0.,1.));
#1637=DIRECTION('center_axis',(0.,1.,0.));
#1638=DIRECTION('ref_axis',(-1.,0.,0.));
#1639=DIRECTION('',(1.,0.,0.));
#1640=DIRECTION('',(-1.,0.,0.));
#1641=DIRECTION('center_axis',(0.,-1.,0.));
#1642=DIRECTION('ref_axis',(1.,0.,0.));
#1643=DIRECTION('',(-1.,0.,0.));
#1644=DIRECTION('',(0.,0.,1.));
#1645=DIRECTION('',(1.,0.,0.));
#1646=DIRECTION('',(0.,0.,1.));
#1647=DIRECTION('center_axis',(-1.,0.,0.));
#1648=DIRECTION('ref_axis',(0.,-1.,0.));
#1649=DIRECTION('',(0.,1.,0.));
#1650=DIRECTION('',(0.,-1.,0.));
#1651=DIRECTION('',(0.,0.,1.));
#1652=DIRECTION('center_axis',(0.,1.,0.));
#1653=DIRECTION('ref_axis',(-1.,0.,0.));
#1654=DIRECTION('',(1.,0.,0.));
#1655=DIRECTION('',(-1.,0.,0.));
#1656=DIRECTION('',(0.,0.,1.));
#1657=DIRECTION('center_axis',(1.,0.,0.));
#1658=DIRECTION('ref_axis',(0.,1.,0.));
#1659=DIRECTION('',(0.,-1.,0.));
#1660=DIRECTION('',(0.,1.,0.));
#1661=DIRECTION('center_axis',(-1.,0.,0.));
#1662=DIRECTION('ref_axis',(0.,-1.,0.));
#1663=DIRECTION('',(0.,1.,0.));
#1664=DIRECTION('',(0.,0.,1.));
#1665=DIRECTION('',(0.,-1.,0.));
#1666=DIRECTION('',(0.,0.,1.));
#1667=DIRECTION('center_axis',(0.,1.,0.));
#1668=DIRECTION('ref_axis',(-1.,0.,0.));
#1669=DIRECTION('',(1.,0.,0.));
#1670=DIRECTION('',(-1.,0.,0.));
#1671=DIRECTION('',(0.,0.,1.));
#1672=DIRECTION('center_axis',(1.,0.,0.));
#1673=DIRECTION('ref_axis',(0.,1.,0.));
#1674=DIRECTION('',(0.,-1.,0.));
#1675=DIRECTION('',(0.,1.,0.));
#1676=DIRECTION('',(0.,0.,1.));
#1677=DIRECTION('center_axis',(0.,-1.,0.));
#1678=DIRECTION('ref_axis',(1.,0.,0.));
#1679=DIRECTION('',(-1.,0.,0.));
#1680=DIRECTION('',(1.,0.,0.));
#1681=DIRECTION('center_axis',(0.,-1.,0.));
#1682=DIRECTION('ref_axis',(1.,0.,0.));
#1683=DIRECTION('',(-1.,0.,0.));
#1684=DIRECTION('',(0.,0.,1.));
#1685=DIRECTION('',(1.,0.,0.));
#1686=DIRECTION('',(0.,0.,1.));
#1687=DIRECTION('center_axis',(-1.,0.,0.));
#1688=DIRECTION('ref_axis',(0.,-1.,0.));
#1689=DIRECTION('',(0.,1.,0.));
#1690=DIRECTION('',(0.,-1.,0.));
#1691=DIRECTION('',(0.,0.,1.));
#1692=DIRECTION('center_axis',(0.,1.,0.));
#1693=DIRECTION('ref_axis',(-1.,0.,0.));
#1694=DIRECTION('',(1.,0.,0.));
#1695=DIRECTION('',(-1.,0.,0.));
#1696=DIRECTION('',(0.,0.,1.));
#1697=DIRECTION('center_axis',(1.,0.,0.));
#1698=DIRECTION('ref_axis',(0.,1.,0.));
#1699=DIRECTION('',(0.,-1.,0.));
#1700=DIRECTION('',(0.,1.,0.));
#1701=DIRECTION('center_axis',(-1.,0.,0.));
#1702=DIRECTION('ref_axis',(0.,-1.,0.));
#1703=DIRECTION('',(0.,1.,0.));
#1704=DIRECTION('',(0.,0.,1.));
#1705=DIRECTION('',(0.,-1.,0.));
#1706=DIRECTION('',(0.,0.,1.));
#1707=DIRECTION('center_axis',(0.,1.,0.));
#1708=DIRECTION('ref_axis',(-1.,0.,0.));
#1709=DIRECTION('',(1.,0.,0.));
#1710=DIRECTION('',(-1.,0.,0.));
#1711=DIRECTION('',(0.,0.,1.));
#1712=DIRECTION('center_axis',(1.,0.,0.));
#1713=DIRECTION('ref_axis',(0.,1.,0.));
#1714=DIRECTION('',(0.,-1.,0.));
#1715=DIRECTION('',(0.,1.,0.));
#1716=DIRECTION('',(0.,0.,1.));
#1717=DIRECTION('center_axis',(0.,-1.,0.));
#1718=DIRECTION('ref_axis',(1.,0.,0.));
#1719=DIRECTION('',(-1.,0.,0.));
#1720=DIRECTION('',(1.,0.,0.));
#1721=DIRECTION('center_axis',(-1.,0.,0.));
#1722=DIRECTION('ref_axis',(0.,-1.,0.));
#1723=DIRECTION('',(0.,1.,0.));
#1724=DIRECTION('',(0.,0.,1.));
#1725=DIRECTION('',(0.,-1.,0.));
#1726=DIRECTION('',(0.,0.,1.));
#1727=DIRECTION('center_axis',(0.,1.,0.));
#1728=DIRECTION('ref_axis',(-1.,0.,0.));
#1729=DIRECTION('',(1.,0.,0.));
#1730=DIRECTION('',(-1.,0.,0.));
#1731=DIRECTION('',(0.,0.,1.));
#1732=DIRECTION('center_axis',(1.,0.,0.));
#1733=DIRECTION('ref_axis',(0.,1.,0.));
#1734=DIRECTION('',(0.,-1.,0.));
#1735=DIRECTION('',(0.,1.,0.));
#1736=DIRECTION('',(0.,0.,1.));
#1737=DIRECTION('center_axis',(0.,-1.,0.));
#1738=DIRECTION('ref_axis',(1.,0.,0.));
#1739=DIRECTION('',(-1.,0.,0.));
#1740=DIRECTION('',(1.,0.,0.));
#1741=DIRECTION('center_axis',(-1.,0.,0.));
#1742=DIRECTION('ref_axis',(0.,-1.,0.));
#1743=DIRECTION('',(0.,1.,0.));
#1744=DIRECTION('',(0.,0.,1.));
#1745=DIRECTION('',(0.,-1.,0.));
#1746=DIRECTION('',(0.,0.,1.));
#1747=DIRECTION('center_axis',(0.,1.,0.));
#1748=DIRECTION('ref_axis',(-1.,0.,0.));
#1749=DIRECTION('',(1.,0.,0.));
#1750=DIRECTION('',(-1.,0.,0.));
#1751=DIRECTION('',(0.,0.,1.));
#1752=DIRECTION('center_axis',(1.,0.,0.));
#1753=DIRECTION('ref_axis',(0.,1.,0.));
#1754=DIRECTION('',(0.,-1.,0.));
#1755=DIRECTION('',(0.,1.,0.));
#1756=DIRECTION('',(0.,0.,1.));
#1757=DIRECTION('center_axis',(0.,-1.,0.));
#1758=DIRECTION('ref_axis',(1.,0.,0.));
#1759=DIRECTION('',(-1.,0.,0.));
#1760=DIRECTION('',(1.,0.,0.));
#1761=DIRECTION('center_axis',(-1.,0.,0.));
#1762=DIRECTION('ref_axis',(0.,-1.,0.));
#1763=DIRECTION('',(0.,1.,0.));
#1764=DIRECTION('',(0.,0.,1.));
#1765=DIRECTION('',(0.,-1.,0.));
#1766=DIRECTION('',(0.,0.,1.));
#1767=DIRECTION('center_axis',(0.,1.,0.));
#1768=DIRECTION('ref_axis',(-1.,0.,0.));
#1769=DIRECTION('',(1.,0.,0.));
#1770=DIRECTION('',(-1.,0.,0.));
#1771=DIRECTION('',(0.,0.,1.));
#1772=DIRECTION('center_axis',(1.,0.,0.));
#1773=DIRECTION('ref_axis',(0.,1.,0.));
#1774=DIRECTION('',(0.,-1.,0.));
#1775=DIRECTION('',(0.,1.,0.));
#1776=DIRECTION('',(0.,0.,1.));
#1777=DIRECTION('center_axis',(0.,-1.,0.));
#1778=DIRECTION('ref_axis',(1.,0.,0.));
#1779=DIRECTION('',(-1.,0.,0.));
#1780=DIRECTION('',(1.,0.,0.));
#1781=DIRECTION('center_axis',(0.,-1.,0.));
#1782=DIRECTION('ref_axis',(1.,0.,0.));
#1783=DIRECTION('',(-1.,0.,0.));
#1784=DIRECTION('',(0.,0.,1.));
#1785=DIRECTION('',(1.,0.,0.));
#1786=DIRECTION('',(0.,0.,1.));
#1787=DIRECTION('center_axis',(-1.,0.,0.));
#1788=DIRECTION('ref_axis',(0.,-1.,0.));
#1789=DIRECTION('',(0.,1.,0.));
#1790=DIRECTION('',(0.,-1.,0.));
#1791=DIRECTION('',(0.,0.,1.));
#1792=DIRECTION('center_axis',(0.,1.,0.));
#1793=DIRECTION('ref_axis',(-1.,0.,0.));
#1794=DIRECTION('',(1.,0.,0.));
#1795=DIRECTION('',(-1.,0.,0.));
#1796=DIRECTION('',(0.,0.,1.));
#1797=DIRECTION('center_axis',(1.,0.,0.));
#1798=DIRECTION('ref_axis',(0.,1.,0.));
#1799=DIRECTION('',(0.,-1.,0.));
#1800=DIRECTION('',(0.,1.,0.));
#1801=DIRECTION('center_axis',(0.,0.,1.));
#1802=DIRECTION('ref_axis',(1.,0.,0.));
#1803=DIRECTION('center_axis',(0.,0.,1.));
#1804=DIRECTION('ref_axis',(1.,0.,0.));
#1805=DIRECTION('',(0.,0.,1.));
#1806=DIRECTION('center_axis',(0.,0.,-1.));
#1807=DIRECTION('ref_axis',(1.,0.,0.));
#1808=DIRECTION('center_axis',(1.,0.,0.));
#1809=DIRECTION('ref_axis',(0.,-1.,0.));
#1810=DIRECTION('',(0.,-1.,0.));
#1811=DIRECTION('',(0.,0.,-1.));
#1812=DIRECTION('',(0.,-1.,0.));
#1813=DIRECTION('',(0.,0.,-1.));
#1814=DIRECTION('center_axis',(0.,1.,0.));
#1815=DIRECTION('ref_axis',(1.,0.,0.));
#1816=DIRECTION('',(1.,0.,0.));
#1817=DIRECTION('',(1.,0.,0.));
#1818=DIRECTION('',(0.,0.,-1.));
#1819=DIRECTION('center_axis',(-1.,0.,0.));
#1820=DIRECTION('ref_axis',(0.,1.,0.));
#1821=DIRECTION('',(0.,1.,0.));
#1822=DIRECTION('',(0.,1.,0.));
#1823=DIRECTION('',(0.,0.,-1.));
#1824=DIRECTION('center_axis',(8.29296608041175E-17,-1.,0.));
#1825=DIRECTION('ref_axis',(-1.,-8.29296608041175E-17,0.));
#1826=DIRECTION('',(-1.,-8.29296608041175E-17,0.));
#1827=DIRECTION('',(-1.,-8.29296608041175E-17,0.));
#1828=DIRECTION('center_axis',(0.,0.,1.));
#1829=DIRECTION('ref_axis',(1.,0.,0.));
#1830=DIRECTION('center_axis',(0.,0.,-1.));
#1831=DIRECTION('ref_axis',(-1.,0.,0.));
#1832=CARTESIAN_POINT('',(0.,0.,0.));
#1833=CARTESIAN_POINT('Origin',(-76.4677356262482,-44.2469093386303,-3.));
#1834=CARTESIAN_POINT('',(-78.0677356262482,-44.2469093386303,11.));
#1835=CARTESIAN_POINT('Origin',(-76.4677356262482,-44.2469093386303,11.));
#1836=CARTESIAN_POINT('',(-78.0677356262482,-44.2469093386303,12.));
#1837=CARTESIAN_POINT('',(-78.0677356262482,-44.2469093386303,-3.));
#1838=CARTESIAN_POINT('Origin',(-76.4677356262482,-44.2469093386303,12.));
#1839=CARTESIAN_POINT('Origin',(-76.4677356262482,-44.2469093386303,12.));
#1840=CARTESIAN_POINT('Origin',(21.102372146116,43.3392804291199,-3.));
#1841=CARTESIAN_POINT('',(19.502372146116,43.3392804291199,11.));
#1842=CARTESIAN_POINT('Origin',(21.102372146116,43.3392804291199,11.));
#1843=CARTESIAN_POINT('',(19.502372146116,43.3392804291199,12.));
#1844=CARTESIAN_POINT('',(19.502372146116,43.3392804291199,-3.));
#1845=CARTESIAN_POINT('Origin',(21.102372146116,43.3392804291199,12.));
#1846=CARTESIAN_POINT('Origin',(21.102372146116,43.3392804291199,12.));
#1847=CARTESIAN_POINT('Origin',(-76.9215500810034,43.2571111602162,-3.));
#1848=CARTESIAN_POINT('',(-78.5215500810034,43.2571111602162,11.));
#1849=CARTESIAN_POINT('Origin',(-76.9215500810034,43.2571111602162,11.));
#1850=CARTESIAN_POINT('',(-78.5215500810034,43.2571111602162,12.));
#1851=CARTESIAN_POINT('',(-78.5215500810034,43.2571111602162,-3.));
#1852=CARTESIAN_POINT('Origin',(-76.9215500810034,43.2571111602162,12.));
#1853=CARTESIAN_POINT('Origin',(-76.9215500810034,43.2571111602162,12.));
#1854=CARTESIAN_POINT('Origin',(20.8093776452205,-43.6948436195854,-3.));
#1855=CARTESIAN_POINT('',(19.2093776452205,-43.6948436195854,11.));
#1856=CARTESIAN_POINT('Origin',(20.8093776452205,-43.6948436195854,11.));
#1857=CARTESIAN_POINT('',(19.2093776452205,-43.6948436195854,12.));
#1858=CARTESIAN_POINT('',(19.2093776452205,-43.6948436195854,-3.));
#1859=CARTESIAN_POINT('Origin',(20.8093776452205,-43.6948436195854,12.));
#1860=CARTESIAN_POINT('Origin',(20.8093776452205,-43.6948436195854,12.));
#1861=CARTESIAN_POINT('Origin',(-62.6424767516011,-49.6926827956924,3.94175295821567));
#1862=CARTESIAN_POINT('',(-72.8533019835927,-47.6926827956924,3.94175295821567));
#1863=CARTESIAN_POINT('',(-62.6424767516011,-47.6926827956924,3.94175295821567));
#1864=CARTESIAN_POINT('',(-72.0510856900782,-47.6926827956924,3.94175295821567));
#1865=CARTESIAN_POINT('',(-72.8533019835927,-49.6926827956924,3.94175295821567));
#1866=CARTESIAN_POINT('',(-72.8533019835927,-49.6926827956924,3.94175295821567));
#1867=CARTESIAN_POINT('',(-62.6424767516011,-49.6926827956924,3.94175295821567));
#1868=CARTESIAN_POINT('',(-72.0510856900782,-49.6926827956924,3.94175295821567));
#1869=CARTESIAN_POINT('',(-62.6424767516011,-49.6926827956924,3.94175295821567));
#1870=CARTESIAN_POINT('Origin',(-62.6424767516011,-49.6926827956924,7.94175295821567));
#1871=CARTESIAN_POINT('',(-62.6424767516011,-47.6926827956924,7.94175295821567));
#1872=CARTESIAN_POINT('',(-62.6424767516011,-47.6926827956924,3.97087647910784));
#1873=CARTESIAN_POINT('',(-62.6424767516011,-49.6926827956924,7.94175295821567));
#1874=CARTESIAN_POINT('',(-62.6424767516011,-49.6926827956924,3.97087647910784));
#1875=CARTESIAN_POINT('',(-62.6424767516011,-49.6926827956924,7.94175295821567));
#1876=CARTESIAN_POINT('Origin',(-72.8533019835927,-49.6926827956924,7.94175295821567));
#1877=CARTESIAN_POINT('',(-72.8533019835927,-47.6926827956924,7.94175295821567));
#1878=CARTESIAN_POINT('',(-77.1564983060739,-47.6926827956924,7.94175295821567));
#1879=CARTESIAN_POINT('',(-72.8533019835927,-49.6926827956924,7.94175295821567));
#1880=CARTESIAN_POINT('',(-77.1564983060739,-49.6926827956924,7.94175295821567));
#1881=CARTESIAN_POINT('',(-72.8533019835927,-49.6926827956924,7.94175295821567));
#1882=CARTESIAN_POINT('Origin',(-72.8533019835927,-49.6926827956924,3.94175295821567));
#1883=CARTESIAN_POINT('',(-72.8533019835927,-47.6926827956924,1.97087647910784));
#1884=CARTESIAN_POINT('',(-72.8533019835927,-49.6926827956924,1.97087647910784));
#1885=CARTESIAN_POINT('Origin',(-79.4596946285552,48.1043322040493,0.));
#1886=CARTESIAN_POINT('',(-79.4596946285552,46.1043322040493,0.));
#1887=CARTESIAN_POINT('',(-79.4596946285552,-47.6926827956924,0.));
#1888=CARTESIAN_POINT('',(-79.4596946285552,23.6550784541138,0.));
#1889=CARTESIAN_POINT('',(-79.4596946285552,46.1043322040493,11.));
#1890=CARTESIAN_POINT('',(-79.4596946285552,46.1043322040493,0.));
#1891=CARTESIAN_POINT('',(-79.4596946285552,-47.6926827956924,11.));
#1892=CARTESIAN_POINT('',(-79.4596946285552,23.6550784541138,11.));
#1893=CARTESIAN_POINT('',(-79.4596946285552,-47.6926827956924,0.));
#1894=CARTESIAN_POINT('Origin',(25.3403053714448,46.1043322040493,0.));
#1895=CARTESIAN_POINT('',(23.3403053714448,46.1043322040493,0.));
#1896=CARTESIAN_POINT('',(-1.35969462855517,46.1043322040493,0.));
#1897=CARTESIAN_POINT('',(23.3403053714448,46.1043322040493,11.));
#1898=CARTESIAN_POINT('',(23.3403053714448,46.1043322040493,0.));
#1899=CARTESIAN_POINT('',(-1.35969462855517,46.1043322040493,11.));
#1900=CARTESIAN_POINT('Origin',(23.3403053714448,-49.6926827956924,0.));
#1901=CARTESIAN_POINT('',(23.3403053714448,-47.6926827956924,0.));
#1902=CARTESIAN_POINT('',(23.3403053714448,-25.243429045757,0.));
#1903=CARTESIAN_POINT('',(23.3403053714448,-47.6926827956924,11.));
#1904=CARTESIAN_POINT('',(23.3403053714448,-47.6926827956924,0.));
#1905=CARTESIAN_POINT('',(23.3403053714448,-25.243429045757,11.));
#1906=CARTESIAN_POINT('Origin',(-81.4596946285552,-47.6926827956924,0.));
#1907=CARTESIAN_POINT('',(-54.7596946285552,-47.6926827956924,0.));
#1908=CARTESIAN_POINT('',(-54.7596946285552,-47.6926827956924,11.));
#1909=CARTESIAN_POINT('Origin',(-28.0596946285552,-0.79417529582158,11.));
#1910=CARTESIAN_POINT('Origin',(-81.4596946285552,48.1043322040493,0.));
#1911=CARTESIAN_POINT('',(-81.4596946285552,-49.6926827956924,0.));
#1912=CARTESIAN_POINT('',(-81.4596946285552,48.1043322040493,0.));
#1913=CARTESIAN_POINT('',(-81.4596946285552,-49.6926827956924,0.));
#1914=CARTESIAN_POINT('',(-81.4596946285552,-49.6926827956924,13.));
#1915=CARTESIAN_POINT('',(-81.4596946285552,-49.6926827956924,0.));
#1916=CARTESIAN_POINT('',(-81.4596946285552,48.1043322040493,13.));
#1917=CARTESIAN_POINT('',(-81.4596946285552,-49.6926827956924,13.));
#1918=CARTESIAN_POINT('',(-81.4596946285552,48.1043322040493,0.));
#1919=CARTESIAN_POINT('Origin',(25.3403053714448,48.1043322040493,0.));
#1920=CARTESIAN_POINT('',(25.3403053714448,48.1043322040493,0.));
#1921=CARTESIAN_POINT('',(-81.4596946285552,48.1043322040493,0.));
#1922=CARTESIAN_POINT('',(25.3403053714448,48.1043322040493,13.));
#1923=CARTESIAN_POINT('',(-81.4596946285552,48.1043322040493,13.));
#1924=CARTESIAN_POINT('',(25.3403053714448,48.1043322040493,0.));
#1925=CARTESIAN_POINT('Origin',(25.3403053714448,-49.6926827956924,0.));
#1926=CARTESIAN_POINT('',(25.3403053714448,-49.6926827956924,0.));
#1927=CARTESIAN_POINT('',(25.3403053714448,48.1043322040493,0.));
#1928=CARTESIAN_POINT('',(25.3403053714448,-49.6926827956924,13.));
#1929=CARTESIAN_POINT('',(25.3403053714448,48.1043322040493,13.));
#1930=CARTESIAN_POINT('',(25.3403053714448,-49.6926827956924,0.));
#1931=CARTESIAN_POINT('Origin',(-81.4596946285552,-49.6926827956924,0.));
#1932=CARTESIAN_POINT('',(25.3403053714448,-49.6926827956924,0.));
#1933=CARTESIAN_POINT('',(25.3403053714448,-49.6926827956924,13.));
#1934=CARTESIAN_POINT('Origin',(-28.0596946285552,-0.79417529582158,13.));
#1935=CARTESIAN_POINT('Origin',(-28.0596946285552,-0.79417529582158,0.));
#1936=CARTESIAN_POINT('Origin',(-76.4677356262482,-44.2469093386303,-3.));
#1937=CARTESIAN_POINT('',(-78.0677356262482,-44.2469093386303,-3.));
#1938=CARTESIAN_POINT('Origin',(-76.4677356262482,-44.2469093386303,-3.));
#1939=CARTESIAN_POINT('',(-78.0677356262482,-44.2469093386303,0.));
#1940=CARTESIAN_POINT('',(-78.0677356262482,-44.2469093386303,-3.));
#1941=CARTESIAN_POINT('Origin',(-76.4677356262482,-44.2469093386303,0.));
#1942=CARTESIAN_POINT('Origin',(21.102372146116,43.3392804291199,-3.));
#1943=CARTESIAN_POINT('',(19.502372146116,43.3392804291199,-3.));
#1944=CARTESIAN_POINT('Origin',(21.102372146116,43.3392804291199,-3.));
#1945=CARTESIAN_POINT('',(19.502372146116,43.3392804291199,0.));
#1946=CARTESIAN_POINT('',(19.502372146116,43.3392804291199,-3.));
#1947=CARTESIAN_POINT('Origin',(21.102372146116,43.3392804291199,0.));
#1948=CARTESIAN_POINT('Origin',(-76.9215500810034,43.2571111602162,-3.));
#1949=CARTESIAN_POINT('',(-78.5215500810034,43.2571111602162,-3.));
#1950=CARTESIAN_POINT('Origin',(-76.9215500810034,43.2571111602162,-3.));
#1951=CARTESIAN_POINT('',(-78.5215500810034,43.2571111602162,0.));
#1952=CARTESIAN_POINT('',(-78.5215500810034,43.2571111602162,-3.));
#1953=CARTESIAN_POINT('Origin',(-76.9215500810034,43.2571111602162,0.));
#1954=CARTESIAN_POINT('Origin',(20.8093776452205,-43.6948436195854,-3.));
#1955=CARTESIAN_POINT('',(19.2093776452205,-43.6948436195854,-3.));
#1956=CARTESIAN_POINT('Origin',(20.8093776452205,-43.6948436195854,-3.));
#1957=CARTESIAN_POINT('',(19.2093776452205,-43.6948436195854,0.));
#1958=CARTESIAN_POINT('',(19.2093776452205,-43.6948436195854,-3.));
#1959=CARTESIAN_POINT('Origin',(20.8093776452205,-43.6948436195854,0.));
#1960=CARTESIAN_POINT('Origin',(-0.242989222763565,-40.4557745126885,-3.));
#1961=CARTESIAN_POINT('',(-0.242989222763565,-27.4557745126885,0.));
#1962=CARTESIAN_POINT('',(-0.242989222763565,-40.4557745126885,0.));
#1963=CARTESIAN_POINT('',(-0.242989222763565,-20.7384285179438,0.));
#1964=CARTESIAN_POINT('',(-0.242989222763565,-27.4557745126885,-3.));
#1965=CARTESIAN_POINT('',(-0.242989222763565,-27.4557745126885,-3.));
#1966=CARTESIAN_POINT('',(-0.242989222763565,-40.4557745126885,-3.));
#1967=CARTESIAN_POINT('',(-0.242989222763565,-20.7384285179438,-3.));
#1968=CARTESIAN_POINT('',(-0.242989222763565,-40.4557745126885,-3.));
#1969=CARTESIAN_POINT('Origin',(-26.1104131438089,-40.4557745126885,-3.));
#1970=CARTESIAN_POINT('',(-26.1104131438089,-40.4557745126885,0.));
#1971=CARTESIAN_POINT('',(-27.1234546693151,-40.4557745126885,0.));
#1972=CARTESIAN_POINT('',(-26.1104131438089,-40.4557745126885,-3.));
#1973=CARTESIAN_POINT('',(-27.1234546693151,-40.4557745126885,-3.));
#1974=CARTESIAN_POINT('',(-26.1104131438089,-40.4557745126885,-3.));
#1975=CARTESIAN_POINT('Origin',(-26.1104131438089,-27.4557745126885,-3.));
#1976=CARTESIAN_POINT('',(-26.1104131438089,-27.4557745126885,0.));
#1977=CARTESIAN_POINT('',(-26.1104131438089,-14.2384285179438,0.));
#1978=CARTESIAN_POINT('',(-26.1104131438089,-27.4557745126885,-3.));
#1979=CARTESIAN_POINT('',(-26.1104131438089,-14.2384285179438,-3.));
#1980=CARTESIAN_POINT('',(-26.1104131438089,-27.4557745126885,-3.));
#1981=CARTESIAN_POINT('Origin',(-0.242989222763565,-27.4557745126885,-3.));
#1982=CARTESIAN_POINT('',(-14.1897427087924,-27.4557745126885,0.));
#1983=CARTESIAN_POINT('',(-14.1897427087924,-27.4557745126885,-3.));
#1984=CARTESIAN_POINT('Origin',(-63.7087647910784,6.23296124034283,-3.));
#1985=CARTESIAN_POINT('',(-49.6441292370217,6.23296124034283,0.));
#1986=CARTESIAN_POINT('',(-63.7087647910784,6.23296124034283,0.));
#1987=CARTESIAN_POINT('',(-45.9226304929498,6.23296124034283,0.));
#1988=CARTESIAN_POINT('',(-49.6441292370217,6.23296124034283,-3.));
#1989=CARTESIAN_POINT('',(-49.6441292370217,6.23296124034283,-3.));
#1990=CARTESIAN_POINT('',(-63.7087647910784,6.23296124034283,-3.));
#1991=CARTESIAN_POINT('',(-45.9226304929498,6.23296124034283,-3.));
#1992=CARTESIAN_POINT('',(-63.7087647910784,6.23296124034283,-3.));
#1993=CARTESIAN_POINT('Origin',(-63.7087647910784,20.2329612403428,-3.));
#1994=CARTESIAN_POINT('',(-63.7087647910784,20.2329612403428,0.));
#1995=CARTESIAN_POINT('',(-63.7087647910784,9.60593935857183,0.));
#1996=CARTESIAN_POINT('',(-63.7087647910784,20.2329612403428,-3.));
#1997=CARTESIAN_POINT('',(-63.7087647910784,9.60593935857183,-3.));
#1998=CARTESIAN_POINT('',(-63.7087647910784,20.2329612403428,-3.));
#1999=CARTESIAN_POINT('Origin',(-49.6441292370217,20.2329612403428,-3.));
#2000=CARTESIAN_POINT('',(-49.6441292370217,20.2329612403428,0.));
#2001=CARTESIAN_POINT('',(-38.8903127159215,20.2329612403428,0.));
#2002=CARTESIAN_POINT('',(-49.6441292370217,20.2329612403428,-3.));
#2003=CARTESIAN_POINT('',(-38.8903127159215,20.2329612403428,-3.));
#2004=CARTESIAN_POINT('',(-49.6441292370217,20.2329612403428,-3.));
#2005=CARTESIAN_POINT('Origin',(-49.6441292370217,6.23296124034283,-3.));
#2006=CARTESIAN_POINT('',(-49.6441292370217,2.60593935857183,0.));
#2007=CARTESIAN_POINT('',(-49.6441292370217,2.60593935857183,-3.));
#2008=CARTESIAN_POINT('Origin',(-6.52814349192551,40.6163937005888,-3.));
#2009=CARTESIAN_POINT('',(-6.52814349192551,26.5481456031781,0.));
#2010=CARTESIAN_POINT('',(-6.52814349192551,40.6163937005888,0.));
#2011=CARTESIAN_POINT('',(-6.52814349192552,19.7976555886948,0.));
#2012=CARTESIAN_POINT('',(-6.52814349192551,26.5481456031781,-3.));
#2013=CARTESIAN_POINT('',(-6.52814349192551,26.5481456031781,-3.));
#2014=CARTESIAN_POINT('',(-6.52814349192551,40.6163937005888,-3.));
#2015=CARTESIAN_POINT('',(-6.52814349192552,19.7976555886948,-3.));
#2016=CARTESIAN_POINT('',(-6.52814349192551,40.6163937005888,-3.));
#2017=CARTESIAN_POINT('Origin',(7.47185650807449,40.6163937005888,-3.));
#2018=CARTESIAN_POINT('',(7.47185650807449,40.6163937005888,0.));
#2019=CARTESIAN_POINT('',(-10.3323198433734,40.6163937005888,0.));
#2020=CARTESIAN_POINT('',(7.47185650807449,40.6163937005888,-3.));
#2021=CARTESIAN_POINT('',(-10.3323198433734,40.6163937005888,-3.));
#2022=CARTESIAN_POINT('',(7.47185650807449,40.6163937005888,-3.));
#2023=CARTESIAN_POINT('Origin',(7.47185650807449,26.5481456031781,-3.));
#2024=CARTESIAN_POINT('',(7.47185650807449,26.5481456031781,0.));
#2025=CARTESIAN_POINT('',(7.47185650807449,12.7635315399895,0.));
#2026=CARTESIAN_POINT('',(7.47185650807449,26.5481456031781,-3.));
#2027=CARTESIAN_POINT('',(7.47185650807449,12.7635315399895,-3.));
#2028=CARTESIAN_POINT('',(7.47185650807449,26.5481456031781,-3.));
#2029=CARTESIAN_POINT('Origin',(-6.52814349192551,26.5481456031781,-3.));
#2030=CARTESIAN_POINT('',(-17.3323198433734,26.5481456031781,0.));
#2031=CARTESIAN_POINT('',(-17.3323198433734,26.5481456031781,-3.));
#2032=CARTESIAN_POINT('Origin',(-35.118454141502,6.45986846772042,-3.));
#2033=CARTESIAN_POINT('',(-21.0538185874452,6.45986846772042,0.));
#2034=CARTESIAN_POINT('',(-35.118454141502,6.45986846772042,0.));
#2035=CARTESIAN_POINT('',(-31.6274751681616,6.45986846772042,0.));
#2036=CARTESIAN_POINT('',(-21.0538185874452,6.45986846772042,-3.));
#2037=CARTESIAN_POINT('',(-21.0538185874452,6.45986846772042,-3.));
#2038=CARTESIAN_POINT('',(-35.118454141502,6.45986846772042,-3.));
#2039=CARTESIAN_POINT('',(-31.6274751681616,6.45986846772042,-3.));
#2040=CARTESIAN_POINT('',(-35.118454141502,6.45986846772042,-3.));
#2041=CARTESIAN_POINT('Origin',(-35.118454141502,20.4598684677204,-3.));
#2042=CARTESIAN_POINT('',(-35.118454141502,20.4598684677204,0.));
#2043=CARTESIAN_POINT('',(-35.118454141502,9.71939297226063,0.));
#2044=CARTESIAN_POINT('',(-35.118454141502,20.4598684677204,-3.));
#2045=CARTESIAN_POINT('',(-35.118454141502,9.71939297226063,-3.));
#2046=CARTESIAN_POINT('',(-35.118454141502,20.4598684677204,-3.));
#2047=CARTESIAN_POINT('Origin',(-21.0538185874452,20.4598684677204,-3.));
#2048=CARTESIAN_POINT('',(-21.0538185874452,20.4598684677204,0.));
#2049=CARTESIAN_POINT('',(-24.5951573911333,20.4598684677204,0.));
#2050=CARTESIAN_POINT('',(-21.0538185874452,20.4598684677204,-3.));
#2051=CARTESIAN_POINT('',(-24.5951573911333,20.4598684677204,-3.));
#2052=CARTESIAN_POINT('',(-21.0538185874452,20.4598684677204,-3.));
#2053=CARTESIAN_POINT('Origin',(-21.0538185874452,6.45986846772042,-3.));
#2054=CARTESIAN_POINT('',(-21.0538185874452,2.71939297226063,0.));
#2055=CARTESIAN_POINT('',(-21.0538185874452,2.71939297226063,-3.));
#2056=CARTESIAN_POINT('Origin',(-35.118454141502,-0.869410905773123,-3.));
#2057=CARTESIAN_POINT('',(-35.118454141502,-14.8694109057731,0.));
#2058=CARTESIAN_POINT('',(-35.118454141502,-0.869410905773123,0.));
#2059=CARTESIAN_POINT('',(-35.118454141502,-0.945246714486143,0.));
#2060=CARTESIAN_POINT('',(-35.118454141502,-14.8694109057731,-3.));
#2061=CARTESIAN_POINT('',(-35.118454141502,-14.8694109057731,-3.));
#2062=CARTESIAN_POINT('',(-35.118454141502,-0.869410905773123,-3.));
#2063=CARTESIAN_POINT('',(-35.118454141502,-0.945246714486143,-3.));
#2064=CARTESIAN_POINT('',(-35.118454141502,-0.869410905773123,-3.));
#2065=CARTESIAN_POINT('Origin',(-21.0538185874452,-0.869410905773123,-3.));
#2066=CARTESIAN_POINT('',(-21.0538185874452,-0.869410905773123,0.));
#2067=CARTESIAN_POINT('',(-24.5951573911333,-0.869410905773123,0.));
#2068=CARTESIAN_POINT('',(-21.0538185874452,-0.869410905773123,-3.));
#2069=CARTESIAN_POINT('',(-24.5951573911333,-0.869410905773123,-3.));
#2070=CARTESIAN_POINT('',(-21.0538185874452,-0.869410905773123,-3.));
#2071=CARTESIAN_POINT('Origin',(-21.0538185874452,-14.8694109057731,-3.));
#2072=CARTESIAN_POINT('',(-21.0538185874452,-14.8694109057731,0.));
#2073=CARTESIAN_POINT('',(-21.0538185874452,-7.94524671448614,0.));
#2074=CARTESIAN_POINT('',(-21.0538185874452,-14.8694109057731,-3.));
#2075=CARTESIAN_POINT('',(-21.0538185874452,-7.94524671448614,-3.));
#2076=CARTESIAN_POINT('',(-21.0538185874452,-14.8694109057731,-3.));
#2077=CARTESIAN_POINT('Origin',(-35.118454141502,-14.8694109057731,-3.));
#2078=CARTESIAN_POINT('',(-31.6274751681616,-14.8694109057731,0.));
#2079=CARTESIAN_POINT('',(-31.6274751681616,-14.8694109057731,-3.));
#2080=CARTESIAN_POINT('Origin',(-63.7087647910784,40.1625792458336,-3.));
#2081=CARTESIAN_POINT('',(-63.7087647910784,26.094331148423,0.));
#2082=CARTESIAN_POINT('',(-63.7087647910784,40.1625792458336,0.));
#2083=CARTESIAN_POINT('',(-63.7087647910784,19.5707483613172,0.));
#2084=CARTESIAN_POINT('',(-63.7087647910784,26.094331148423,-3.));
#2085=CARTESIAN_POINT('',(-63.7087647910784,26.094331148423,-3.));
#2086=CARTESIAN_POINT('',(-63.7087647910784,40.1625792458336,-3.));
#2087=CARTESIAN_POINT('',(-63.7087647910784,19.5707483613172,-3.));
#2088=CARTESIAN_POINT('',(-63.7087647910784,40.1625792458336,-3.));
#2089=CARTESIAN_POINT('Origin',(-49.7087647910784,40.1625792458336,-3.));
#2090=CARTESIAN_POINT('',(-49.7087647910784,40.1625792458336,0.));
#2091=CARTESIAN_POINT('',(-38.9226304929498,40.1625792458336,0.));
#2092=CARTESIAN_POINT('',(-49.7087647910784,40.1625792458336,-3.));
#2093=CARTESIAN_POINT('',(-38.9226304929498,40.1625792458336,-3.));
#2094=CARTESIAN_POINT('',(-49.7087647910784,40.1625792458336,-3.));
#2095=CARTESIAN_POINT('Origin',(-49.7087647910784,26.094331148423,-3.));
#2096=CARTESIAN_POINT('',(-49.7087647910784,26.094331148423,0.));
#2097=CARTESIAN_POINT('',(-49.7087647910784,12.5366243126119,0.));
#2098=CARTESIAN_POINT('',(-49.7087647910784,26.094331148423,-3.));
#2099=CARTESIAN_POINT('',(-49.7087647910784,12.5366243126119,-3.));
#2100=CARTESIAN_POINT('',(-49.7087647910784,26.094331148423,-3.));
#2101=CARTESIAN_POINT('Origin',(-63.7087647910784,26.094331148423,-3.));
#2102=CARTESIAN_POINT('',(-45.9226304929498,26.094331148423,0.));
#2103=CARTESIAN_POINT('',(-45.9226304929498,26.094331148423,-3.));
#2104=CARTESIAN_POINT('Origin',(-6.52814349192551,-0.642503678395521,-3.));
#2105=CARTESIAN_POINT('',(-6.52814349192551,-14.6425036783955,0.));
#2106=CARTESIAN_POINT('',(-6.52814349192551,-0.642503678395521,0.));
#2107=CARTESIAN_POINT('',(-6.52814349192552,-0.831793100797342,0.));
#2108=CARTESIAN_POINT('',(-6.52814349192551,-14.6425036783955,-3.));
#2109=CARTESIAN_POINT('',(-6.52814349192551,-14.6425036783955,-3.));
#2110=CARTESIAN_POINT('',(-6.52814349192551,-0.642503678395521,-3.));
#2111=CARTESIAN_POINT('',(-6.52814349192552,-0.831793100797342,-3.));
#2112=CARTESIAN_POINT('',(-6.52814349192551,-0.642503678395521,-3.));
#2113=CARTESIAN_POINT('Origin',(7.53649206213122,-0.642503678395521,-3.));
#2114=CARTESIAN_POINT('',(7.53649206213122,-0.642503678395521,0.));
#2115=CARTESIAN_POINT('',(-10.300002066345,-0.642503678395521,0.));
#2116=CARTESIAN_POINT('',(7.53649206213122,-0.642503678395521,-3.));
#2117=CARTESIAN_POINT('',(-10.300002066345,-0.642503678395521,-3.));
#2118=CARTESIAN_POINT('',(7.53649206213122,-0.642503678395521,-3.));
#2119=CARTESIAN_POINT('Origin',(7.53649206213122,-14.6425036783955,-3.));
#2120=CARTESIAN_POINT('',(7.53649206213122,-14.6425036783955,0.));
#2121=CARTESIAN_POINT('',(7.53649206213121,-7.83179310079734,0.));
#2122=CARTESIAN_POINT('',(7.53649206213122,-14.6425036783955,-3.));
#2123=CARTESIAN_POINT('',(7.53649206213121,-7.83179310079734,-3.));
#2124=CARTESIAN_POINT('',(7.53649206213122,-14.6425036783955,-3.));
#2125=CARTESIAN_POINT('Origin',(-6.52814349192551,-14.6425036783955,-3.));
#2126=CARTESIAN_POINT('',(-17.3323198433734,-14.6425036783955,0.));
#2127=CARTESIAN_POINT('',(-17.3323198433734,-14.6425036783955,-3.));
#2128=CARTESIAN_POINT('Origin',(-35.118454141502,40.3894864732112,-3.));
#2129=CARTESIAN_POINT('',(-35.118454141502,26.3212383758005,0.));
#2130=CARTESIAN_POINT('',(-35.118454141502,40.3894864732112,0.));
#2131=CARTESIAN_POINT('',(-35.118454141502,19.684201975006,0.));
#2132=CARTESIAN_POINT('',(-35.118454141502,26.3212383758005,-3.));
#2133=CARTESIAN_POINT('',(-35.118454141502,26.3212383758005,-3.));
#2134=CARTESIAN_POINT('',(-35.118454141502,40.3894864732112,-3.));
#2135=CARTESIAN_POINT('',(-35.118454141502,19.684201975006,-3.));
#2136=CARTESIAN_POINT('',(-35.118454141502,40.3894864732112,-3.));
#2137=CARTESIAN_POINT('Origin',(-21.118454141502,40.3894864732112,-3.));
#2138=CARTESIAN_POINT('',(-21.118454141502,40.3894864732112,0.));
#2139=CARTESIAN_POINT('',(-24.6274751681616,40.3894864732112,0.));
#2140=CARTESIAN_POINT('',(-21.118454141502,40.3894864732112,-3.));
#2141=CARTESIAN_POINT('',(-24.6274751681616,40.3894864732112,-3.));
#2142=CARTESIAN_POINT('',(-21.118454141502,40.3894864732112,-3.));
#2143=CARTESIAN_POINT('Origin',(-21.118454141502,26.3212383758005,-3.));
#2144=CARTESIAN_POINT('',(-21.118454141502,26.3212383758005,0.));
#2145=CARTESIAN_POINT('',(-21.118454141502,12.6500779263007,0.));
#2146=CARTESIAN_POINT('',(-21.118454141502,26.3212383758005,-3.));
#2147=CARTESIAN_POINT('',(-21.118454141502,12.6500779263007,-3.));
#2148=CARTESIAN_POINT('',(-21.118454141502,26.3212383758005,-3.));
#2149=CARTESIAN_POINT('Origin',(-35.118454141502,26.3212383758005,-3.));
#2150=CARTESIAN_POINT('',(-31.6274751681616,26.3212383758005,0.));
#2151=CARTESIAN_POINT('',(-31.6274751681616,26.3212383758005,-3.));
#2152=CARTESIAN_POINT('Origin',(-6.52814349192551,6.68677569509802,-3.));
#2153=CARTESIAN_POINT('',(7.53649206213122,6.68677569509802,0.));
#2154=CARTESIAN_POINT('',(-6.52814349192551,6.68677569509802,0.));
#2155=CARTESIAN_POINT('',(-17.3323198433734,6.68677569509802,0.));
#2156=CARTESIAN_POINT('',(7.53649206213122,6.68677569509802,-3.));
#2157=CARTESIAN_POINT('',(7.53649206213122,6.68677569509802,-3.));
#2158=CARTESIAN_POINT('',(-6.52814349192551,6.68677569509802,-3.));
#2159=CARTESIAN_POINT('',(-17.3323198433734,6.68677569509802,-3.));
#2160=CARTESIAN_POINT('',(-6.52814349192551,6.68677569509802,-3.));
#2161=CARTESIAN_POINT('Origin',(-6.52814349192551,20.686775695098,-3.));
#2162=CARTESIAN_POINT('',(-6.52814349192551,20.686775695098,0.));
#2163=CARTESIAN_POINT('',(-6.52814349192552,9.83284658594943,0.));
#2164=CARTESIAN_POINT('',(-6.52814349192551,20.686775695098,-3.));
#2165=CARTESIAN_POINT('',(-6.52814349192552,9.83284658594943,-3.));
#2166=CARTESIAN_POINT('',(-6.52814349192551,20.686775695098,-3.));
#2167=CARTESIAN_POINT('Origin',(7.53649206213122,20.686775695098,-3.));
#2168=CARTESIAN_POINT('',(7.53649206213122,20.686775695098,0.));
#2169=CARTESIAN_POINT('',(-10.300002066345,20.686775695098,0.));
#2170=CARTESIAN_POINT('',(7.53649206213122,20.686775695098,-3.));
#2171=CARTESIAN_POINT('',(-10.300002066345,20.686775695098,-3.));
#2172=CARTESIAN_POINT('',(7.53649206213122,20.686775695098,-3.));
#2173=CARTESIAN_POINT('Origin',(7.53649206213122,6.68677569509802,-3.));
#2174=CARTESIAN_POINT('',(7.53649206213121,2.83284658594943,0.));
#2175=CARTESIAN_POINT('',(7.53649206213121,2.83284658594943,-3.));
#2176=CARTESIAN_POINT('Origin',(-56.3569102890407,-8.61451463793456,-3.));
#2177=CARTESIAN_POINT('',(-60.3569102890407,-8.61451463793456,-3.));
#2178=CARTESIAN_POINT('Origin',(-56.3569102890407,-8.61451463793456,-3.));
#2179=CARTESIAN_POINT('',(-60.3569102890407,-8.61451463793456,0.));
#2180=CARTESIAN_POINT('',(-60.3569102890407,-8.61451463793456,-3.));
#2181=CARTESIAN_POINT('Origin',(-56.3569102890407,-8.61451463793456,0.));
#2182=CARTESIAN_POINT('Origin',(25.4136094662902,47.6505177492941,0.));
#2183=CARTESIAN_POINT('',(25.4136094662902,47.6505177492941,0.));
#2184=CARTESIAN_POINT('',(25.4136094662902,-49.6926827956924,0.));
#2185=CARTESIAN_POINT('',(25.4136094662902,47.6505177492941,0.));
#2186=CARTESIAN_POINT('',(25.4136094662902,-49.6926827956924,-3.));
#2187=CARTESIAN_POINT('',(25.4136094662902,-49.6926827956924,0.));
#2188=CARTESIAN_POINT('',(25.4136094662902,47.6505177492941,-3.));
#2189=CARTESIAN_POINT('',(25.4136094662902,47.6505177492941,-3.));
#2190=CARTESIAN_POINT('',(25.4136094662902,47.6505177492941,0.));
#2191=CARTESIAN_POINT('Origin',(-81.6866018559327,47.6505177492941,0.));
#2192=CARTESIAN_POINT('',(-81.6866018559327,47.6505177492941,0.));
#2193=CARTESIAN_POINT('',(-81.6866018559327,47.6505177492941,0.));
#2194=CARTESIAN_POINT('',(-81.6866018559327,47.6505177492941,-3.));
#2195=CARTESIAN_POINT('',(-81.6866018559327,47.6505177492941,-3.));
#2196=CARTESIAN_POINT('',(-81.6866018559327,47.6505177492941,0.));
#2197=CARTESIAN_POINT('Origin',(-81.6866018559327,-49.6926827956924,0.));
#2198=CARTESIAN_POINT('',(-81.6866018559327,-49.6926827956924,0.));
#2199=CARTESIAN_POINT('',(-81.6866018559327,-49.6926827956924,0.));
#2200=CARTESIAN_POINT('',(-81.6866018559327,-49.6926827956924,-3.));
#2201=CARTESIAN_POINT('',(-81.6866018559327,-49.6926827956924,-3.));
#2202=CARTESIAN_POINT('',(-81.6866018559327,-49.6926827956924,0.));
#2203=CARTESIAN_POINT('Origin',(25.4136094662902,-49.6926827956924,0.));
#2204=CARTESIAN_POINT('',(25.4136094662902,-49.6926827956924,0.));
#2205=CARTESIAN_POINT('',(25.4136094662902,-49.6926827956924,-3.));
#2206=CARTESIAN_POINT('Origin',(-28.1364961948213,-1.02108252319916,0.));
#2207=CARTESIAN_POINT('Origin',(-28.1364961948213,-1.02108252319916,-3.));
#2208=UNCERTAINTY_MEASURE_WITH_UNIT(LENGTH_MEASURE(0.01),#2212,
'DISTANCE_ACCURACY_VALUE',
'Maximum model space distance between geometric entities at asserted c
onnectivities');
#2209=UNCERTAINTY_MEASURE_WITH_UNIT(LENGTH_MEASURE(0.01),#2212,
'DISTANCE_ACCURACY_VALUE',
'Maximum model space distance between geometric entities at asserted c
onnectivities');
#2210=(
GEOMETRIC_REPRESENTATION_CONTEXT(3)
GLOBAL_UNCERTAINTY_ASSIGNED_CONTEXT((#2208))
GLOBAL_UNIT_ASSIGNED_CONTEXT((#2212,#2214,#2215))
REPRESENTATION_CONTEXT('','3D')
);
#2211=(
GEOMETRIC_REPRESENTATION_CONTEXT(3)
GLOBAL_UNCERTAINTY_ASSIGNED_CONTEXT((#2209))
GLOBAL_UNIT_ASSIGNED_CONTEXT((#2212,#2214,#2215))
REPRESENTATION_CONTEXT('','3D')
);
#2212=(
LENGTH_UNIT()
NAMED_UNIT(*)
SI_UNIT(.MILLI.,.METRE.)
);
#2213=(
LENGTH_UNIT()
NAMED_UNIT(*)
SI_UNIT($,.METRE.)
);
#2214=(
NAMED_UNIT(*)
PLANE_ANGLE_UNIT()
SI_UNIT($,.RADIAN.)
);
#2215=(
NAMED_UNIT(*)
SI_UNIT($,.STERADIAN.)
SOLID_ANGLE_UNIT()
);
#2216=SHAPE_DEFINITION_REPRESENTATION(#2217,#2218);
#2217=PRODUCT_DEFINITION_SHAPE('',$,#2220);
#2218=SHAPE_REPRESENTATION('',(#1400),#2210);
#2219=PRODUCT_DEFINITION_CONTEXT('part definition',#2224,'design');
#2220=PRODUCT_DEFINITION('2026-08-07-09-18-49-499','(Unsaved)',#2221,#2219);
#2221=PRODUCT_DEFINITION_FORMATION('',$,#2226);
#2222=PRODUCT_RELATED_PRODUCT_CATEGORY('(Unsaved)','(Unsaved)',(#2226));
#2223=APPLICATION_PROTOCOL_DEFINITION('international standard',
'automotive_design',2009,#2224);
#2224=APPLICATION_CONTEXT(
'Core Data for Automotive Mechanical Design Process');
#2225=PRODUCT_CONTEXT('part definition',#2224,'mechanical');
#2226=PRODUCT('2026-08-07-09-18-49-499','(Unsaved)',$,(#2225));
#2227=PRESENTATION_STYLE_ASSIGNMENT((#2228));
#2228=SURFACE_STYLE_USAGE(.BOTH.,#2229);
#2229=SURFACE_SIDE_STYLE('',(#2230));
#2230=SURFACE_STYLE_FILL_AREA(#2231);
#2231=FILL_AREA_STYLE('Steel - Satin',(#2232));
#2232=FILL_AREA_STYLE_COLOUR('Steel - Satin',#2233);
#2233=COLOUR_RGB('Steel - Satin',0.627450980392157,0.627450980392157,0.627450980392157);
ENDSEC;
END-ISO-10303-21;
